<svg id="fig-appendix-5-svg" width="11.3cm" height="18.3cm" viewBox="0 0 427.0866141783 691.6535433153" xmlns="http://www.w3.org/2000/svg"><text x="213.54330708915" y="16" text-anchor="middle" font-family="Arial, sans-serif" font-size="8.8" font-weight="700" fill="#111111">Permutation correlations with prediction P(poH) - P(H)</text><g transform="translate(10,28)"><g transform="translate(78,0)"><g fill="none" font-size="10" font-family="sans-serif" text-anchor="middle"><g class="tick" opacity="1" transform="translate(27.20767888280149,0)"><line stroke="#d9d9d9" y2="187.988" stroke-width="0.45"/><text fill="currentColor" y="190.988" dy="0.71em"/></g><g class="tick" opacity="1" transform="translate(55.859668156883046,0)"><line stroke="#d9d9d9" y2="187.988" stroke-width="0.45"/><text fill="currentColor" y="190.988" dy="0.71em"/></g><g class="tick" opacity="1" transform="translate(84.5116574309646,0)"><line stroke="#d9d9d9" y2="187.988" stroke-width="0.45"/><text fill="currentColor" y="190.988" dy="0.71em"/></g><g class="tick" opacity="1" transform="translate(113.16364670504616,0)"><line stroke="#d9d9d9" y2="187.988" stroke-width="0.45"/><text fill="currentColor" y="190.988" dy="0.71em"/></g></g><g class="bar-with-dots"><rect x="55.859668156883046" y="4.15" width="57.9532410092276" height="7.2" rx="3.6" ry="3.6" fill="#bdbdbd"/><circle cx="60.05966815688305" cy="7.75" r="2.2" fill="#585858"/><circle cx="109.61290916611064" cy="7.75" r="2.2" fill="#111111"/></g><g class="bar-with-dots"><rect x="5.730397848670785" y="19.65" width="50.12927030821226" height="7.2" rx="3.6" ry="3.6" fill="#c9c9c9"/><circle cx="51.65966815688304" cy="23.25" r="2.2" fill="#585858"/><circle cx="9.930397848670786" cy="23.25" r="2.2" fill="#8a8a8a"/></g><g class="bar-with-dots"><rect x="10.211503885572593" y="35.15" width="45.64816427131045" height="7.2" rx="3.6" ry="3.6" fill="#c9c9c9"/><circle cx="51.65966815688304" cy="38.75" r="2.2" fill="#585858"/><circle cx="14.411503885572593" cy="38.75" r="2.2" fill="#8a8a8a"/></g><g class="bar-with-dots"><rect x="11.828891173504974" y="51.644000000000005" width="44.030776983378075" height="7.2" rx="3.6" ry="3.6" fill="#c9c9c9"/><circle cx="51.65966815688304" cy="55.244" r="2.2" fill="#585858"/><circle cx="16.028891173504974" cy="55.244" r="2.2" fill="#8a8a8a"/></g><g class="bar-with-dots"><rect x="55.859668156883046" y="68.138" width="39.33614886935679" height="7.2" rx="3.6" ry="3.6" fill="#bdbdbd"/><circle cx="60.05966815688305" cy="71.738" r="2.2" fill="#585858"/><circle cx="90.99581702623983" cy="71.738" r="2.2" fill="#111111"/></g><g class="bar-with-dots"><rect x="55.859668156883046" y="83.638" width="37.408283435926734" height="7.2" rx="3.6" ry="3.6" fill="#bdbdbd"/><circle cx="60.05966815688305" cy="87.238" r="2.2" fill="#585858"/><circle cx="89.06795159280978" cy="87.238" r="2.2" fill="#111111"/></g><g class="bar-with-dots"><rect x="20.547240945306868" y="99.138" width="35.31242721157618" height="7.2" rx="3.6" ry="3.6" fill="#c9c9c9"/><circle cx="51.65966815688304" cy="102.738" r="2.2" fill="#585858"/><circle cx="24.747240945306867" cy="102.738" r="2.2" fill="#8a8a8a"/></g><g class="bar-with-dots"><rect x="55.859668156883046" y="114.638" width="28.689616455872994" height="7.2" rx="3.6" ry="3.6" fill="#bdbdbd"/><circle cx="60.05966815688305" cy="118.238" r="2.2" fill="#585858"/><circle cx="80.34928461275604" cy="118.238" r="2.2" fill="#111111"/></g><g class="bar-with-dots"><rect x="31.837351737653915" y="130.138" width="24.02231641922913" height="7.2" rx="3.6" ry="3.6" fill="#c9c9c9"/><circle cx="51.65966815688304" cy="133.738" r="2.2" fill="#585858"/><circle cx="36.037351737653914" cy="133.738" r="2.2" fill="#8a8a8a"/></g><g class="bar-with-dots"><rect x="32.60158670603506" y="145.638" width="23.25808145084799" height="7.2" rx="3.6" ry="3.6" fill="#c9c9c9"/><circle cx="51.65966815688304" cy="149.238" r="2.2" fill="#585858"/><circle cx="36.80158670603506" cy="149.238" r="2.2" fill="#8a8a8a"/></g><g class="bar-with-dots"><rect x="38.36984554806831" y="161.138" width="17.489822608814734" height="7.2" rx="3.6" ry="3.6" fill="#c9c9c9"/><circle cx="51.65966815688304" cy="164.738" r="2.2" fill="#585858"/><circle cx="42.569845548068315" cy="164.738" r="2.2" fill="#8a8a8a"/></g><g class="bar-with-dots"><rect x="55.859668156883046" y="176.638" width="17.19558631831046" height="7.2" rx="3.6" ry="3.6" fill="#bdbdbd"/><circle cx="60.05966815688305" cy="180.238" r="2.2" fill="#585858"/><circle cx="68.8552544751935" cy="180.238" r="2.2" fill="#111111"/></g><text class="value-label" x="49.859668156883046" y="7.75" text-anchor="end" dominant-baseline="middle" font-family="Arial, sans-serif" font-size="5.2" font-weight="400" fill="#333333">.040</text><text class="value-label" x="61.859668156883046" y="23.25" text-anchor="start" dominant-baseline="middle" font-family="Arial, sans-serif" font-size="5.2" font-weight="400" fill="#333333">−.035</text><text class="value-label" x="61.859668156883046" y="38.75" text-anchor="start" dominant-baseline="middle" font-family="Arial, sans-serif" font-size="5.2" font-weight="400" fill="#333333">−.032</text><text class="value-label" x="61.859668156883046" y="55.244" text-anchor="start" dominant-baseline="middle" font-family="Arial, sans-serif" font-size="5.2" font-weight="400" fill="#333333">−.031</text><text class="value-label" x="49.859668156883046" y="71.738" text-anchor="end" dominant-baseline="middle" font-family="Arial, sans-serif" font-size="5.2" font-weight="400" fill="#333333">.027</text><text class="value-label" x="49.859668156883046" y="87.238" text-anchor="end" dominant-baseline="middle" font-family="Arial, sans-serif" font-size="5.2" font-weight="400" fill="#333333">.026</text><text class="value-label" x="61.859668156883046" y="102.738" text-anchor="start" dominant-baseline="middle" font-family="Arial, sans-serif" font-size="5.2" font-weight="400" fill="#333333">−.025</text><text class="value-label" x="49.859668156883046" y="118.238" text-anchor="end" dominant-baseline="middle" font-family="Arial, sans-serif" font-size="5.2" font-weight="400" fill="#333333">.020</text><text class="value-label" x="61.859668156883046" y="133.738" text-anchor="start" dominant-baseline="middle" font-family="Arial, sans-serif" font-size="5.2" font-weight="400" fill="#333333">−.017</text><text class="value-label" x="61.859668156883046" y="149.238" text-anchor="start" dominant-baseline="middle" font-family="Arial, sans-serif" font-size="5.2" font-weight="400" fill="#333333">−.016</text><text class="value-label" x="61.859668156883046" y="164.738" text-anchor="start" dominant-baseline="middle" font-family="Arial, sans-serif" font-size="5.2" font-weight="400" fill="#333333">−.012</text><text class="value-label" x="49.859668156883046" y="180.238" text-anchor="end" dominant-baseline="middle" font-family="Arial, sans-serif" font-size="5.2" font-weight="400" fill="#333333">.012</text><g transform="translate(0,187.988)" fill="none" font-size="10" font-family="sans-serif" text-anchor="middle"><path class="domain" stroke="#111111" d="M0,0H119.54330708915" stroke-width="0.65"/><g class="tick" opacity="1" transform="translate(27.20767888280149,0)"><line stroke="#111111" y2="4.5" stroke-width="0.45"/><text fill="#111111" y="9" dy="0.15em" font-family="Arial, sans-serif" font-size="7" font-weight="400">−.02</text></g><g class="tick" opacity="1" transform="translate(55.859668156883046,0)"><line stroke="#111111" y2="4.5" stroke-width="0.45"/><text fill="#111111" y="9" dy="0.15em" font-family="Arial, sans-serif" font-size="7" font-weight="400">0</text></g><g class="tick" opacity="1" transform="translate(84.5116574309646,0)"><line stroke="#111111" y2="4.5" stroke-width="0.45"/><text fill="#111111" y="9" dy="0.15em" font-family="Arial, sans-serif" font-size="7" font-weight="400">.02</text></g><g class="tick" opacity="1" transform="translate(113.16364670504616,0)"><line stroke="#111111" y2="4.5" stroke-width="0.45"/><text fill="#111111" y="9" dy="0.15em" font-family="Arial, sans-serif" font-size="7" font-weight="400">.04</text></g></g><g transform="translate(0,187.988)"><line class="minor-tick" x1="41.53367351984227" x2="41.53367351984227" y1="0" y2="3" stroke="#111111" stroke-width="0.45"/><line class="minor-tick" x1="70.18566279392383" x2="70.18566279392383" y1="0" y2="3" stroke="#111111" stroke-width="0.45"/><line class="minor-tick" x1="98.83765206800538" x2="98.83765206800538" y1="0" y2="3" stroke="#111111" stroke-width="0.45"/></g></g><line class="row-separator" x1="0" x2="197.54330708915" y1="15.5" y2="15.5" stroke="#ebebeb" stroke-width="0.3825"/><line class="row-separator" x1="0" x2="197.54330708915" y1="31" y2="31" stroke="#ebebeb" stroke-width="0.3825"/><line class="row-separator" x1="0" x2="197.54330708915" y1="46.5" y2="46.5" stroke="#ebebeb" stroke-width="0.3825"/><line class="row-separator" x1="0" x2="197.54330708915" y1="63.988" y2="63.988" stroke="#ebebeb" stroke-width="0.3825"/><line class="row-separator" x1="0" x2="197.54330708915" y1="79.488" y2="79.488" stroke="#ebebeb" stroke-width="0.3825"/><line class="row-separator" x1="0" x2="197.54330708915" y1="94.988" y2="94.988" stroke="#ebebeb" stroke-width="0.3825"/><line class="row-separator" x1="0" x2="197.54330708915" y1="110.488" y2="110.488" stroke="#ebebeb" stroke-width="0.3825"/><line class="row-separator" x1="0" x2="197.54330708915" y1="125.988" y2="125.988" stroke="#ebebeb" stroke-width="0.3825"/><line class="row-separator" x1="0" x2="197.54330708915" y1="141.488" y2="141.488" stroke="#ebebeb" stroke-width="0.3825"/><line class="row-separator" x1="0" x2="197.54330708915" y1="156.988" y2="156.988" stroke="#ebebeb" stroke-width="0.3825"/><line class="row-separator" x1="0" x2="197.54330708915" y1="172.488" y2="172.488" stroke="#ebebeb" stroke-width="0.3825"/><g fill="#111111" font-family="Arial, sans-serif" font-size="6.2"><text x="77" y="9.75" text-anchor="end"><tspan x="77" dy="0">Wirtschaftliche Seite</tspan></text><text x="77" y="25.25" text-anchor="end"><tspan x="77" dy="0">Recht auf Widerstand</tspan></text><text x="77" y="40.75" text-anchor="end"><tspan x="77" dy="0">inalienable rights</tspan></text><text x="77" y="57.244" text-anchor="end"><tspan x="77" dy="-3.565">Naturrechtlich-freiheitliche</tspan><tspan x="77" dy="7.13">Seite</tspan></text><text x="77" y="73.738" text-anchor="end"><tspan x="77" dy="0">Good government</tspan></text><text x="77" y="89.238" text-anchor="end"><tspan x="77" dy="0">Right to Life</tspan></text><text x="77" y="104.738" text-anchor="end"><tspan x="77" dy="0">Right to Privacy</tspan></text><text x="77" y="120.238" text-anchor="end"><tspan x="77" dy="0">Fundamental Law</tspan></text><text x="77" y="135.738" text-anchor="end"><tspan x="77" dy="0">Recht auf Sicherheit</tspan></text><text x="77" y="151.238" text-anchor="end"><tspan x="77" dy="0">Civil Liberties</tspan></text><text x="77" y="166.738" text-anchor="end"><tspan x="77" dy="0">General Welfare</tspan></text><text x="77" y="182.238" text-anchor="end"><tspan x="77" dy="0">Due Process Clause</tspan></text></g><text x="-3.7531585693359375" y="-5" text-anchor="middle" font-family="Arial, sans-serif" font-size="3.6799999999999997" font-weight="700" fill="#111111">Ra.</text><g><circle cx="-3.7531585693359375" cy="7.75" r="4.03" fill="#e8e8e8" stroke="#d6d6d6" stroke-width="0.7"/><circle cx="-3.7531585693359375" cy="23.25" r="4.03" fill="#e8e8e8" stroke="#d6d6d6" stroke-width="0.7"/><circle cx="-3.7531585693359375" cy="38.75" r="4.03" fill="#e8e8e8" stroke="#d6d6d6" stroke-width="0.7"/><circle cx="-3.7531585693359375" cy="55.244" r="4.03" fill="#e8e8e8" stroke="#d6d6d6" stroke-width="0.7"/><circle cx="-3.7531585693359375" cy="71.738" r="4.03" fill="#e8e8e8" stroke="#d6d6d6" stroke-width="0.7"/><circle cx="-3.7531585693359375" cy="87.238" r="4.03" fill="#e8e8e8" stroke="#d6d6d6" stroke-width="0.7"/><circle cx="-3.7531585693359375" cy="102.738" r="4.03" fill="#e8e8e8" stroke="#d6d6d6" stroke-width="0.7"/><circle cx="-3.7531585693359375" cy="118.238" r="4.03" fill="#e8e8e8" stroke="#d6d6d6" stroke-width="0.7"/><circle cx="-3.7531585693359375" cy="133.738" r="4.03" fill="#e8e8e8" stroke="#d6d6d6" stroke-width="0.7"/><circle cx="-3.7531585693359375" cy="149.238" r="4.03" fill="#e8e8e8" stroke="#d6d6d6" stroke-width="0.7"/><circle cx="-3.7531585693359375" cy="164.738" r="4.03" fill="#e8e8e8" stroke="#d6d6d6" stroke-width="0.7"/><circle cx="-3.7531585693359375" cy="180.238" r="4.03" fill="#e8e8e8" stroke="#d6d6d6" stroke-width="0.7"/></g><g font-family="Arial, sans-serif" font-size="4.048" fill="#111111"><text x="-3.7531585693359375" y="7.75" dominant-baseline="middle" text-anchor="middle">1</text><text x="-3.7531585693359375" y="23.25" dominant-baseline="middle" text-anchor="middle">2</text><text x="-3.7531585693359375" y="38.75" dominant-baseline="middle" text-anchor="middle">3</text><text x="-3.7531585693359375" y="55.244" dominant-baseline="middle" text-anchor="middle">4</text><text x="-3.7531585693359375" y="71.738" dominant-baseline="middle" text-anchor="middle">5</text><text x="-3.7531585693359375" y="87.238" dominant-baseline="middle" text-anchor="middle">6</text><text x="-3.7531585693359375" y="102.738" dominant-baseline="middle" text-anchor="middle">7</text><text x="-3.7531585693359375" y="118.238" dominant-baseline="middle" text-anchor="middle">8</text><text x="-3.7531585693359375" y="133.738" dominant-baseline="middle" text-anchor="middle">9</text><text x="-3.7531585693359375" y="149.238" dominant-baseline="middle" text-anchor="middle">10</text><text x="-3.7531585693359375" y="164.738" dominant-baseline="middle" text-anchor="middle">11</text><text x="-3.7531585693359375" y="180.238" dominant-baseline="middle" text-anchor="middle">12</text></g><line x1="133.85966815688306" x2="133.85966815688306" y1="0" y2="187.988" stroke="#111111" stroke-width="0.55"/></g><text x="213.54330708915" y="242.488" text-anchor="middle" font-family="Arial, sans-serif" font-size="7.5" fill="#111111">Pearson correlation coefficient between permuted variable &amp; prediction P(poH) - P(H)</text><g transform="translate(219.54330708915,28)"><g transform="translate(78,0)"><g fill="none" font-size="10" font-family="sans-serif" text-anchor="middle"><g class="tick" opacity="1" transform="translate(27.20767888280149,0)"><line stroke="#d9d9d9" y2="187.988" stroke-width="0.45"/><text fill="currentColor" y="190.988" dy="0.71em"/></g><g class="tick" opacity="1" transform="translate(55.859668156883046,0)"><line stroke="#d9d9d9" y2="187.988" stroke-width="0.45"/><text fill="currentColor" y="190.988" dy="0.71em"/></g><g class="tick" opacity="1" transform="translate(84.5116574309646,0)"><line stroke="#d9d9d9" y2="187.988" stroke-width="0.45"/><text fill="currentColor" y="190.988" dy="0.71em"/></g><g class="tick" opacity="1" transform="translate(113.16364670504616,0)"><line stroke="#d9d9d9" y2="187.988" stroke-width="0.45"/><text fill="currentColor" y="190.988" dy="0.71em"/></g></g><g class="bar-with-dots"><rect x="55.859668156883046" y="5.144000000000002" width="16.709795136664027" height="7.2" rx="3.6" ry="3.6" fill="#bdbdbd"/><circle cx="60.05966815688305" cy="8.744000000000002" r="2.2" fill="#585858"/><circle cx="68.36946329354707" cy="8.744000000000002" r="2.2" fill="#111111"/></g><g class="bar-with-dots"><rect x="40.7955567242364" y="21.638000000000005" width="15.064111432646648" height="7.2" rx="3.6" ry="3.6" fill="#c9c9c9"/><circle cx="51.65966815688304" cy="25.238000000000003" r="2.2" fill="#585858"/><circle cx="44.9955567242364" cy="25.238000000000003" r="2.2" fill="#8a8a8a"/></g><g class="bar-with-dots"><rect x="43.87785880981526" y="38.132000000000005" width="11.981809347067788" height="7.2" rx="3.6" ry="3.6" fill="#c9c9c9"/><circle cx="51.65966815688304" cy="41.732" r="2.2" fill="#585858"/><circle cx="48.07785880981526" cy="41.732" r="2.2" fill="#8a8a8a"/></g><g class="bar-with-dots"><rect x="55.859668156883046" y="55.620000000000005" width="11.001022809148154" height="7.2" rx="3.6" ry="3.6" fill="#bdbdbd"/><circle cx="60.05966815688305" cy="59.22" r="2.2" fill="#585858"/><circle cx="62.6606909660312" cy="59.22" r="2.2" fill="#111111"/></g><g class="bar-with-dots"><rect x="55.859668156883046" y="72.114" width="10.114520161052823" height="7.2" rx="3.6" ry="3.6" fill="#bdbdbd"/><circle cx="60.05966815688305" cy="75.714" r="2.2" fill="#585858"/><circle cx="61.77418831793587" cy="75.714" r="2.2" fill="#111111"/></g><g class="bar-with-dots"><rect x="55.859668156883046" y="87.614" width="7.605240825298807" height="7.2" rx="3.6" ry="3.6" fill="#bdbdbd"/><circle cx="59.66228856953245" cy="91.214" r="2.2" fill="#585858"/><circle cx="59.66228856953245" cy="91.214" r="2.2" fill="#111111"/></g><g class="bar-with-dots"><rect x="49.477592627357645" y="103.114" width="6.382075529525402" height="7.2" rx="3.6" ry="3.6" fill="#c9c9c9"/><circle cx="52.66863039212035" cy="106.714" r="2.2" fill="#585858"/><circle cx="52.66863039212035" cy="106.714" r="2.2" fill="#8a8a8a"/></g><g class="bar-with-dots"><rect x="55.859668156883046" y="118.614" width="5.28" height="7.2" rx="3.6" ry="3.6" fill="#bdbdbd"/><circle cx="57.310616326408194" cy="122.214" r="2.2" fill="#585858"/><circle cx="57.310616326408194" cy="122.214" r="2.2" fill="#111111"/></g><g class="bar-with-dots"><rect x="52.97587734505384" y="134.114" width="5.28" height="7.2" rx="3.6" ry="3.6" fill="#c9c9c9"/><circle cx="54.41777275096844" cy="137.714" r="2.2" fill="#585858"/><circle cx="54.41777275096844" cy="137.714" r="2.2" fill="#8a8a8a"/></g><g class="bar-with-dots"><rect x="53.08990652092344" y="149.614" width="5.28" height="7.2" rx="3.6" ry="3.6" fill="#c9c9c9"/><circle cx="54.47478733890324" cy="153.214" r="2.2" fill="#585858"/><circle cx="54.47478733890324" cy="153.214" r="2.2" fill="#8a8a8a"/></g><g class="bar-with-dots"><rect x="55.021548111043316" y="165.114" width="5.28" height="7.2" rx="3.6" ry="3.6" fill="#c9c9c9"/><circle cx="55.44060813396318" cy="168.714" r="2.2" fill="#585858"/><circle cx="55.44060813396318" cy="168.714" r="2.2" fill="#8a8a8a"/></g><text class="value-label" x="49.859668156883046" y="8.744000000000002" text-anchor="end" dominant-baseline="middle" font-family="Arial, sans-serif" font-size="5.2" font-weight="400" fill="#333333">.012</text><text class="value-label" x="61.859668156883046" y="25.238000000000003" text-anchor="start" dominant-baseline="middle" font-family="Arial, sans-serif" font-size="5.2" font-weight="400" fill="#333333">−.011</text><text class="value-label" x="61.859668156883046" y="41.732" text-anchor="start" dominant-baseline="middle" font-family="Arial, sans-serif" font-size="5.2" font-weight="400" fill="#333333">−.008</text><text class="value-label" x="49.859668156883046" y="59.22" text-anchor="end" dominant-baseline="middle" font-family="Arial, sans-serif" font-size="5.2" font-weight="400" fill="#333333">.008</text><text class="value-label" x="49.859668156883046" y="75.714" text-anchor="end" dominant-baseline="middle" font-family="Arial, sans-serif" font-size="5.2" font-weight="400" fill="#333333">.007</text><text class="value-label" x="49.859668156883046" y="91.214" text-anchor="end" dominant-baseline="middle" font-family="Arial, sans-serif" font-size="5.2" font-weight="400" fill="#333333">.005</text><text class="value-label" x="61.859668156883046" y="106.714" text-anchor="start" dominant-baseline="middle" font-family="Arial, sans-serif" font-size="5.2" font-weight="400" fill="#333333">−.004</text><text class="value-label" x="49.859668156883046" y="122.214" text-anchor="end" dominant-baseline="middle" font-family="Arial, sans-serif" font-size="5.2" font-weight="400" fill="#333333">.002</text><text class="value-label" x="61.859668156883046" y="137.714" text-anchor="start" dominant-baseline="middle" font-family="Arial, sans-serif" font-size="5.2" font-weight="400" fill="#333333">−.002</text><text class="value-label" x="61.859668156883046" y="153.214" text-anchor="start" dominant-baseline="middle" font-family="Arial, sans-serif" font-size="5.2" font-weight="400" fill="#333333">−.002</text><text class="value-label" x="61.859668156883046" y="168.714" text-anchor="start" dominant-baseline="middle" font-family="Arial, sans-serif" font-size="5.2" font-weight="400" fill="#333333">−.001</text><g transform="translate(0,187.988)" fill="none" font-size="10" font-family="sans-serif" text-anchor="middle"><path class="domain" stroke="#111111" d="M0,0H119.54330708915" stroke-width="0.65"/><g class="tick" opacity="1" transform="translate(27.20767888280149,0)"><line stroke="#111111" y2="4.5" stroke-width="0.45"/><text fill="#111111" y="9" dy="0.15em" font-family="Arial, sans-serif" font-size="7" font-weight="400">−.02</text></g><g class="tick" opacity="1" transform="translate(55.859668156883046,0)"><line stroke="#111111" y2="4.5" stroke-width="0.45"/><text fill="#111111" y="9" dy="0.15em" font-family="Arial, sans-serif" font-size="7" font-weight="400">0</text></g><g class="tick" opacity="1" transform="translate(84.5116574309646,0)"><line stroke="#111111" y2="4.5" stroke-width="0.45"/><text fill="#111111" y="9" dy="0.15em" font-family="Arial, sans-serif" font-size="7" font-weight="400">.02</text></g><g class="tick" opacity="1" transform="translate(113.16364670504616,0)"><line stroke="#111111" y2="4.5" stroke-width="0.45"/><text fill="#111111" y="9" dy="0.15em" font-family="Arial, sans-serif" font-size="7" font-weight="400">.04</text></g></g><g transform="translate(0,187.988)"><line class="minor-tick" x1="41.53367351984227" x2="41.53367351984227" y1="0" y2="3" stroke="#111111" stroke-width="0.45"/><line class="minor-tick" x1="70.18566279392383" x2="70.18566279392383" y1="0" y2="3" stroke="#111111" stroke-width="0.45"/><line class="minor-tick" x1="98.83765206800538" x2="98.83765206800538" y1="0" y2="3" stroke="#111111" stroke-width="0.45"/></g></g><line class="row-separator" x1="0" x2="197.54330708915" y1="17.488000000000003" y2="17.488000000000003" stroke="#ebebeb" stroke-width="0.3825"/><line class="row-separator" x1="0" x2="197.54330708915" y1="32.988" y2="32.988" stroke="#ebebeb" stroke-width="0.3825"/><line class="row-separator" x1="0" x2="197.54330708915" y1="50.476" y2="50.476" stroke="#ebebeb" stroke-width="0.3825"/><line class="row-separator" x1="0" x2="197.54330708915" y1="67.964" y2="67.964" stroke="#ebebeb" stroke-width="0.3825"/><line class="row-separator" x1="0" x2="197.54330708915" y1="83.464" y2="83.464" stroke="#ebebeb" stroke-width="0.3825"/><line class="row-separator" x1="0" x2="197.54330708915" y1="98.964" y2="98.964" stroke="#ebebeb" stroke-width="0.3825"/><line class="row-separator" x1="0" x2="197.54330708915" y1="114.464" y2="114.464" stroke="#ebebeb" stroke-width="0.3825"/><line class="row-separator" x1="0" x2="197.54330708915" y1="129.964" y2="129.964" stroke="#ebebeb" stroke-width="0.3825"/><line class="row-separator" x1="0" x2="197.54330708915" y1="145.464" y2="145.464" stroke="#ebebeb" stroke-width="0.3825"/><line class="row-separator" x1="0" x2="197.54330708915" y1="160.964" y2="160.964" stroke="#ebebeb" stroke-width="0.3825"/><g fill="#111111" font-family="Arial, sans-serif" font-size="6.2"><text x="77" y="10.744000000000002" text-anchor="end"><tspan x="77" dy="-3.565">Souveränitätsrechtliche</tspan><tspan x="77" dy="7.13">Seite</tspan></text><text x="77" y="27.238000000000003" text-anchor="end"><tspan x="77" dy="0">Doctrine of Equality</tspan></text><text x="77" y="43.732" text-anchor="end"><tspan x="77" dy="-3.565">Souveränität &amp;</tspan><tspan x="77" dy="7.13">Unabhängigkeit</tspan></text><text x="77" y="61.22" text-anchor="end"><tspan x="77" dy="-3.565">U.S. Const. art. III &amp;</tspan><tspan x="77" dy="7.13">Judikative</tspan></text><text x="77" y="77.714" text-anchor="end"><tspan x="77" dy="0">Citizenship</tspan></text><text x="77" y="93.214" text-anchor="end"><tspan x="77" dy="0">Vertragsfreiheit</tspan></text><text x="77" y="108.714" text-anchor="end"><tspan x="77" dy="0">Freedom of Religion</tspan></text><text x="77" y="124.214" text-anchor="end"><tspan x="77" dy="0">Freedom of Movement</tspan></text><text x="77" y="139.714" text-anchor="end"><tspan x="77" dy="0">U.S. Const. amend. XIV</tspan></text><text x="77" y="155.214" text-anchor="end"><tspan x="77" dy="0">Rechtsstaatliche Seite</tspan></text><text x="77" y="170.714" text-anchor="end"><tspan x="77" dy="0">Equal Protection Clause</tspan></text></g><text x="-3.7531585693359375" y="-5" text-anchor="middle" font-family="Arial, sans-serif" font-size="3.6799999999999997" font-weight="700" fill="#111111">Ra.</text><g><circle cx="-3.7531585693359375" cy="8.744000000000002" r="4.03" fill="#e8e8e8" stroke="#d6d6d6" stroke-width="0.7"/><circle cx="-3.7531585693359375" cy="25.238000000000003" r="4.03" fill="#e8e8e8" stroke="#d6d6d6" stroke-width="0.7"/><circle cx="-3.7531585693359375" cy="41.732" r="4.03" fill="#e8e8e8" stroke="#d6d6d6" stroke-width="0.7"/><circle cx="-3.7531585693359375" cy="59.22" r="4.03" fill="#e8e8e8" stroke="#d6d6d6" stroke-width="0.7"/><circle cx="-3.7531585693359375" cy="75.714" r="4.03" fill="#e8e8e8" stroke="#d6d6d6" stroke-width="0.7"/><circle cx="-3.7531585693359375" cy="91.214" r="4.03" fill="#e8e8e8" stroke="#d6d6d6" stroke-width="0.7"/><circle cx="-3.7531585693359375" cy="106.714" r="4.03" fill="#e8e8e8" stroke="#d6d6d6" stroke-width="0.7"/><circle cx="-3.7531585693359375" cy="122.214" r="4.03" fill="#e8e8e8" stroke="#d6d6d6" stroke-width="0.7"/><circle cx="-3.7531585693359375" cy="137.714" r="4.03" fill="#e8e8e8" stroke="#d6d6d6" stroke-width="0.7"/><circle cx="-3.7531585693359375" cy="153.214" r="4.03" fill="#e8e8e8" stroke="#d6d6d6" stroke-width="0.7"/><circle cx="-3.7531585693359375" cy="168.714" r="4.03" fill="#e8e8e8" stroke="#d6d6d6" stroke-width="0.7"/></g><g font-family="Arial, sans-serif" font-size="4.048" fill="#111111"><text x="-3.7531585693359375" y="8.744000000000002" dominant-baseline="middle" text-anchor="middle">13</text><text x="-3.7531585693359375" y="25.238000000000003" dominant-baseline="middle" text-anchor="middle">14</text><text x="-3.7531585693359375" y="41.732" dominant-baseline="middle" text-anchor="middle">15</text><text x="-3.7531585693359375" y="59.22" dominant-baseline="middle" text-anchor="middle">16</text><text x="-3.7531585693359375" y="75.714" dominant-baseline="middle" text-anchor="middle">17</text><text x="-3.7531585693359375" y="91.214" dominant-baseline="middle" text-anchor="middle">18</text><text x="-3.7531585693359375" y="106.714" dominant-baseline="middle" text-anchor="middle">19</text><text x="-3.7531585693359375" y="122.214" dominant-baseline="middle" text-anchor="middle">20</text><text x="-3.7531585693359375" y="137.714" dominant-baseline="middle" text-anchor="middle">21</text><text x="-3.7531585693359375" y="153.214" dominant-baseline="middle" text-anchor="middle">22</text><text x="-3.7531585693359375" y="168.714" dominant-baseline="middle" text-anchor="middle">23</text></g><line x1="133.85966815688306" x2="133.85966815688306" y1="0" y2="187.988" stroke="#111111" stroke-width="0.55"/></g></svg>