<svg id="fig-appendix-4-svg" width="11.3cm" height="18.3cm" viewBox="0 0 427.0866141783 691.6535433153" xmlns="http://www.w3.org/2000/svg"><text x="213.54330708915" y="16" text-anchor="middle" font-family="Arial, sans-serif" font-size="8.8" font-weight="700" fill="#111111">Permutation correlations with prediction P(poH) - P(H)</text><g transform="translate(10,28)"><g transform="translate(78,0)"><g fill="none" font-size="10" font-family="sans-serif" text-anchor="middle"><g class="tick" opacity="1" transform="translate(17.846253663087015,0)"><line stroke="#d9d9d9" y2="253.964" stroke-width="0.45"/><text fill="currentColor" y="256.964" dy="0.71em"/></g><g class="tick" opacity="1" transform="translate(61.79095278865637,0)"><line stroke="#d9d9d9" y2="253.964" stroke-width="0.45"/><text fill="currentColor" y="256.964" dy="0.71em"/></g><g class="tick" opacity="1" transform="translate(105.73565191422571,0)"><line stroke="#d9d9d9" y2="253.964" stroke-width="0.45"/><text fill="currentColor" y="256.964" dy="0.71em"/></g></g><g class="bar-with-dots"><rect x="8.78893993230078" y="4.15" width="53.00201285635559" height="7.2" rx="3.6" ry="3.6" fill="#c9c9c9"/><circle cx="57.59095278865637" cy="7.75" r="2.2" fill="#585858"/><circle cx="12.98893993230078" cy="7.75" r="2.2" fill="#8a8a8a"/></g><g class="bar-with-dots"><rect x="10.810396933229114" y="19.65" width="50.980555855427255" height="7.2" rx="3.6" ry="3.6" fill="#c9c9c9"/><circle cx="57.59095278865637" cy="23.25" r="2.2" fill="#585858"/><circle cx="15.010396933229114" cy="23.25" r="2.2" fill="#8a8a8a"/></g><g class="bar-with-dots"><rect x="61.79095278865637" y="35.15" width="48.963414457536985" height="7.2" rx="3.6" ry="3.6" fill="#bdbdbd"/><circle cx="65.99095278865637" cy="38.75" r="2.2" fill="#585858"/><circle cx="106.55436724619335" cy="38.75" r="2.2" fill="#111111"/></g><g class="bar-with-dots"><rect x="12.968796510545085" y="50.65" width="48.82215627811129" height="7.2" rx="3.6" ry="3.6" fill="#c9c9c9"/><circle cx="57.59095278865637" cy="54.25" r="2.2" fill="#585858"/><circle cx="17.168796510545086" cy="54.25" r="2.2" fill="#8a8a8a"/></g><g class="bar-with-dots"><rect x="61.79095278865637" y="66.15" width="46.69808404969929" height="7.2" rx="3.6" ry="3.6" fill="#bdbdbd"/><circle cx="65.99095278865637" cy="69.75" r="2.2" fill="#585858"/><circle cx="104.28903683835566" cy="69.75" r="2.2" fill="#111111"/></g><g class="bar-with-dots"><rect x="61.79095278865637" y="81.65" width="45.94081294906205" height="7.2" rx="3.6" ry="3.6" fill="#bdbdbd"/><circle cx="65.99095278865637" cy="85.25" r="2.2" fill="#585858"/><circle cx="103.53176573771842" cy="85.25" r="2.2" fill="#111111"/></g><g class="bar-with-dots"><rect x="16.61907493758695" y="98.144" width="45.17187785106942" height="7.2" rx="3.6" ry="3.6" fill="#c9c9c9"/><circle cx="57.59095278865637" cy="101.744" r="2.2" fill="#585858"/><circle cx="20.81907493758695" cy="101.744" r="2.2" fill="#8a8a8a"/></g><g class="bar-with-dots"><rect x="61.79095278865637" y="114.638" width="40.73798213071679" height="7.2" rx="3.6" ry="3.6" fill="#bdbdbd"/><circle cx="65.99095278865637" cy="118.238" r="2.2" fill="#585858"/><circle cx="98.32893491937315" cy="118.238" r="2.2" fill="#111111"/></g><g class="bar-with-dots"><rect x="22.467901033511474" y="130.138" width="39.323051755144895" height="7.2" rx="3.6" ry="3.6" fill="#c9c9c9"/><circle cx="57.59095278865637" cy="133.738" r="2.2" fill="#585858"/><circle cx="26.667901033511473" cy="133.738" r="2.2" fill="#8a8a8a"/></g><g class="bar-with-dots"><rect x="26.249273445295987" y="146.632" width="35.541679343360386" height="7.2" rx="3.6" ry="3.6" fill="#c9c9c9"/><circle cx="57.59095278865637" cy="150.232" r="2.2" fill="#585858"/><circle cx="30.449273445295987" cy="150.232" r="2.2" fill="#8a8a8a"/></g><g class="bar-with-dots"><rect x="27.4573276061786" y="163.126" width="34.333625182477775" height="7.2" rx="3.6" ry="3.6" fill="#c9c9c9"/><circle cx="57.59095278865637" cy="166.726" r="2.2" fill="#585858"/><circle cx="31.657327606178598" cy="166.726" r="2.2" fill="#8a8a8a"/></g><g class="bar-with-dots"><rect x="27.952855371978995" y="178.626" width="33.83809741667737" height="7.2" rx="3.6" ry="3.6" fill="#c9c9c9"/><circle cx="57.59095278865637" cy="182.226" r="2.2" fill="#585858"/><circle cx="32.152855371978994" cy="182.226" r="2.2" fill="#8a8a8a"/></g><g class="bar-with-dots"><rect x="29.312096184645885" y="195.12" width="32.47885660401049" height="7.2" rx="3.6" ry="3.6" fill="#c9c9c9"/><circle cx="57.59095278865637" cy="198.72" r="2.2" fill="#585858"/><circle cx="33.512096184645884" cy="198.72" r="2.2" fill="#8a8a8a"/></g><g class="bar-with-dots"><rect x="61.79095278865637" y="211.614" width="31.90139788899559" height="7.2" rx="3.6" ry="3.6" fill="#bdbdbd"/><circle cx="65.99095278865637" cy="215.214" r="2.2" fill="#585858"/><circle cx="89.49235067765196" cy="215.214" r="2.2" fill="#111111"/></g><g class="bar-with-dots"><rect x="61.79095278865637" y="227.114" width="29.31102028129557" height="7.2" rx="3.6" ry="3.6" fill="#bdbdbd"/><circle cx="65.99095278865637" cy="230.714" r="2.2" fill="#585858"/><circle cx="86.90197306995194" cy="230.714" r="2.2" fill="#111111"/></g><g class="bar-with-dots"><rect x="61.79095278865637" y="242.614" width="27.077938514538175" height="7.2" rx="3.6" ry="3.6" fill="#bdbdbd"/><circle cx="65.99095278865637" cy="246.214" r="2.2" fill="#585858"/><circle cx="84.66889130319454" cy="246.214" r="2.2" fill="#111111"/></g><text class="value-label" x="67.79095278865637" y="7.75" text-anchor="start" dominant-baseline="middle" font-family="Arial, sans-serif" font-size="5.2" font-weight="400" fill="#333333">−.024</text><text class="value-label" x="67.79095278865637" y="23.25" text-anchor="start" dominant-baseline="middle" font-family="Arial, sans-serif" font-size="5.2" font-weight="400" fill="#333333">−.023</text><text class="value-label" x="55.79095278865637" y="38.75" text-anchor="end" dominant-baseline="middle" font-family="Arial, sans-serif" font-size="5.2" font-weight="400" fill="#333333">.022</text><text class="value-label" x="67.79095278865637" y="54.25" text-anchor="start" dominant-baseline="middle" font-family="Arial, sans-serif" font-size="5.2" font-weight="400" fill="#333333">−.022</text><text class="value-label" x="55.79095278865637" y="69.75" text-anchor="end" dominant-baseline="middle" font-family="Arial, sans-serif" font-size="5.2" font-weight="400" fill="#333333">.021</text><text class="value-label" x="55.79095278865637" y="85.25" text-anchor="end" dominant-baseline="middle" font-family="Arial, sans-serif" font-size="5.2" font-weight="400" fill="#333333">.021</text><text class="value-label" x="67.79095278865637" y="101.744" text-anchor="start" dominant-baseline="middle" font-family="Arial, sans-serif" font-size="5.2" font-weight="400" fill="#333333">−.021</text><text class="value-label" x="55.79095278865637" y="118.238" text-anchor="end" dominant-baseline="middle" font-family="Arial, sans-serif" font-size="5.2" font-weight="400" fill="#333333">.019</text><text class="value-label" x="67.79095278865637" y="133.738" text-anchor="start" dominant-baseline="middle" font-family="Arial, sans-serif" font-size="5.2" font-weight="400" fill="#333333">−.018</text><text class="value-label" x="67.79095278865637" y="150.232" text-anchor="start" dominant-baseline="middle" font-family="Arial, sans-serif" font-size="5.2" font-weight="400" fill="#333333">−.016</text><text class="value-label" x="67.79095278865637" y="166.726" text-anchor="start" dominant-baseline="middle" font-family="Arial, sans-serif" font-size="5.2" font-weight="400" fill="#333333">−.016</text><text class="value-label" x="67.79095278865637" y="182.226" text-anchor="start" dominant-baseline="middle" font-family="Arial, sans-serif" font-size="5.2" font-weight="400" fill="#333333">−.015</text><text class="value-label" x="67.79095278865637" y="198.72" text-anchor="start" dominant-baseline="middle" font-family="Arial, sans-serif" font-size="5.2" font-weight="400" fill="#333333">−.015</text><text class="value-label" x="55.79095278865637" y="215.214" text-anchor="end" dominant-baseline="middle" font-family="Arial, sans-serif" font-size="5.2" font-weight="400" fill="#333333">.015</text><text class="value-label" x="55.79095278865637" y="230.714" text-anchor="end" dominant-baseline="middle" font-family="Arial, sans-serif" font-size="5.2" font-weight="400" fill="#333333">.013</text><text class="value-label" x="55.79095278865637" y="246.214" text-anchor="end" dominant-baseline="middle" font-family="Arial, sans-serif" font-size="5.2" font-weight="400" fill="#333333">.012</text><g transform="translate(0,253.964)" fill="none" font-size="10" font-family="sans-serif" text-anchor="middle"><path class="domain" stroke="#111111" d="M0,0H119.54330708915" stroke-width="0.65"/><g class="tick" opacity="1" transform="translate(17.846253663087015,0)"><line stroke="#111111" y2="4.5" stroke-width="0.45"/><text fill="#111111" y="9" dy="0.15em" font-family="Arial, sans-serif" font-size="7" font-weight="400">−.02</text></g><g class="tick" opacity="1" transform="translate(61.79095278865637,0)"><line stroke="#111111" y2="4.5" stroke-width="0.45"/><text fill="#111111" y="9" dy="0.15em" font-family="Arial, sans-serif" font-size="7" font-weight="400">0</text></g><g class="tick" opacity="1" transform="translate(105.73565191422571,0)"><line stroke="#111111" y2="4.5" stroke-width="0.45"/><text fill="#111111" y="9" dy="0.15em" font-family="Arial, sans-serif" font-size="7" font-weight="400">.02</text></g></g><g transform="translate(0,253.964)"><line class="minor-tick" x1="39.81860322587168" x2="39.81860322587168" y1="0" y2="3" stroke="#111111" stroke-width="0.45"/><line class="minor-tick" x1="83.76330235144106" x2="83.76330235144106" y1="0" y2="3" stroke="#111111" stroke-width="0.45"/></g></g><line class="row-separator" x1="0" x2="197.54330708915" y1="15.5" y2="15.5" stroke="#ebebeb" stroke-width="0.3825"/><line class="row-separator" x1="0" x2="197.54330708915" y1="31" y2="31" stroke="#ebebeb" stroke-width="0.3825"/><line class="row-separator" x1="0" x2="197.54330708915" y1="46.5" y2="46.5" stroke="#ebebeb" stroke-width="0.3825"/><line class="row-separator" x1="0" x2="197.54330708915" y1="62" y2="62" stroke="#ebebeb" stroke-width="0.3825"/><line class="row-separator" x1="0" x2="197.54330708915" y1="77.5" y2="77.5" stroke="#ebebeb" stroke-width="0.3825"/><line class="row-separator" x1="0" x2="197.54330708915" y1="93" y2="93" stroke="#ebebeb" stroke-width="0.3825"/><line class="row-separator" x1="0" x2="197.54330708915" y1="110.488" y2="110.488" stroke="#ebebeb" stroke-width="0.3825"/><line class="row-separator" x1="0" x2="197.54330708915" y1="125.988" y2="125.988" stroke="#ebebeb" stroke-width="0.3825"/><line class="row-separator" x1="0" x2="197.54330708915" y1="141.488" y2="141.488" stroke="#ebebeb" stroke-width="0.3825"/><line class="row-separator" x1="0" x2="197.54330708915" y1="158.976" y2="158.976" stroke="#ebebeb" stroke-width="0.3825"/><line class="row-separator" x1="0" x2="197.54330708915" y1="174.476" y2="174.476" stroke="#ebebeb" stroke-width="0.3825"/><line class="row-separator" x1="0" x2="197.54330708915" y1="189.976" y2="189.976" stroke="#ebebeb" stroke-width="0.3825"/><line class="row-separator" x1="0" x2="197.54330708915" y1="207.464" y2="207.464" stroke="#ebebeb" stroke-width="0.3825"/><line class="row-separator" x1="0" x2="197.54330708915" y1="222.964" y2="222.964" stroke="#ebebeb" stroke-width="0.3825"/><line class="row-separator" x1="0" x2="197.54330708915" y1="238.464" y2="238.464" stroke="#ebebeb" stroke-width="0.3825"/><g fill="#111111" font-family="Arial, sans-serif" font-size="6.2"><text x="77" y="9.75" text-anchor="end"><tspan x="77" dy="0">Majority Opinion/Syllabus</tspan></text><text x="77" y="25.25" text-anchor="end"><tspan x="77" dy="0">Citizenship</tspan></text><text x="77" y="40.75" text-anchor="end"><tspan x="77" dy="0">Public Good</tspan></text><text x="77" y="56.25" text-anchor="end"><tspan x="77" dy="0">Concurring Opinion</tspan></text><text x="77" y="71.75" text-anchor="end"><tspan x="77" dy="0">Syllabus/Majority Opinion</tspan></text><text x="77" y="87.25" text-anchor="end"><tspan x="77" dy="0">Berufsfreiheit</tspan></text><text x="77" y="103.744" text-anchor="end"><tspan x="77" dy="-3.565">Syllabus/</tspan><tspan x="77" dy="7.13">Dissenting Opinion</tspan></text><text x="77" y="120.238" text-anchor="end"><tspan x="77" dy="0">Majority Opinion</tspan></text><text x="77" y="135.738" text-anchor="end"><tspan x="77" dy="0">General Welfare</tspan></text><text x="77" y="152.232" text-anchor="end"><tspan x="77" dy="-3.565">Souveränität &amp;</tspan><tspan x="77" dy="7.13">Unabhängigkeit</tspan></text><text x="77" y="168.726" text-anchor="end"><tspan x="77" dy="0">Police Power</tspan></text><text x="77" y="184.226" text-anchor="end"><tspan x="77" dy="0">Good government</tspan></text><text x="77" y="200.72" text-anchor="end"><tspan x="77" dy="-3.565">Majority Opinion/</tspan><tspan x="77" dy="7.13">Dissenting Opinion</tspan></text><text x="77" y="217.214" text-anchor="end"><tspan x="77" dy="0">Right to Life</tspan></text><text x="77" y="232.714" text-anchor="end"><tspan x="77" dy="0">Rechtsstaatliche Seite</tspan></text><text x="77" y="248.214" text-anchor="end"><tspan x="77" dy="0">Due Process Clause</tspan></text></g><text x="-3.7531585693359375" y="-5" text-anchor="middle" font-family="Arial, sans-serif" font-size="3.6799999999999997" font-weight="700" fill="#111111">Ra.</text><g><circle cx="-3.7531585693359375" cy="7.75" r="4.03" fill="#e8e8e8" stroke="#d6d6d6" stroke-width="0.7"/><circle cx="-3.7531585693359375" cy="23.25" r="4.03" fill="#e8e8e8" stroke="#d6d6d6" stroke-width="0.7"/><circle cx="-3.7531585693359375" cy="38.75" r="4.03" fill="#e8e8e8" stroke="#d6d6d6" stroke-width="0.7"/><circle cx="-3.7531585693359375" cy="54.25" r="4.03" fill="#e8e8e8" stroke="#d6d6d6" stroke-width="0.7"/><circle cx="-3.7531585693359375" cy="69.75" r="4.03" fill="#e8e8e8" stroke="#d6d6d6" stroke-width="0.7"/><circle cx="-3.7531585693359375" cy="85.25" r="4.03" fill="#e8e8e8" stroke="#d6d6d6" stroke-width="0.7"/><circle cx="-3.7531585693359375" cy="101.744" r="4.03" fill="#e8e8e8" stroke="#d6d6d6" stroke-width="0.7"/><circle cx="-3.7531585693359375" cy="118.238" r="4.03" fill="#e8e8e8" stroke="#d6d6d6" stroke-width="0.7"/><circle cx="-3.7531585693359375" cy="133.738" r="4.03" fill="#e8e8e8" stroke="#d6d6d6" stroke-width="0.7"/><circle cx="-3.7531585693359375" cy="150.232" r="4.03" fill="#e8e8e8" stroke="#d6d6d6" stroke-width="0.7"/><circle cx="-3.7531585693359375" cy="166.726" r="4.03" fill="#e8e8e8" stroke="#d6d6d6" stroke-width="0.7"/><circle cx="-3.7531585693359375" cy="182.226" r="4.03" fill="#e8e8e8" stroke="#d6d6d6" stroke-width="0.7"/><circle cx="-3.7531585693359375" cy="198.72" r="4.03" fill="#e8e8e8" stroke="#d6d6d6" stroke-width="0.7"/><circle cx="-3.7531585693359375" cy="215.214" r="4.03" fill="#e8e8e8" stroke="#d6d6d6" stroke-width="0.7"/><circle cx="-3.7531585693359375" cy="230.714" r="4.03" fill="#e8e8e8" stroke="#d6d6d6" stroke-width="0.7"/><circle cx="-3.7531585693359375" cy="246.214" r="4.03" fill="#e8e8e8" stroke="#d6d6d6" stroke-width="0.7"/></g><g font-family="Arial, sans-serif" font-size="4.048" fill="#111111"><text x="-3.7531585693359375" y="7.75" dominant-baseline="middle" text-anchor="middle">1</text><text x="-3.7531585693359375" y="23.25" dominant-baseline="middle" text-anchor="middle">2</text><text x="-3.7531585693359375" y="38.75" dominant-baseline="middle" text-anchor="middle">3</text><text x="-3.7531585693359375" y="54.25" dominant-baseline="middle" text-anchor="middle">4</text><text x="-3.7531585693359375" y="69.75" dominant-baseline="middle" text-anchor="middle">5</text><text x="-3.7531585693359375" y="85.25" dominant-baseline="middle" text-anchor="middle">6</text><text x="-3.7531585693359375" y="101.744" dominant-baseline="middle" text-anchor="middle">7</text><text x="-3.7531585693359375" y="118.238" dominant-baseline="middle" text-anchor="middle">8</text><text x="-3.7531585693359375" y="133.738" dominant-baseline="middle" text-anchor="middle">9</text><text x="-3.7531585693359375" y="150.232" dominant-baseline="middle" text-anchor="middle">10</text><text x="-3.7531585693359375" y="166.726" dominant-baseline="middle" text-anchor="middle">11</text><text x="-3.7531585693359375" y="182.226" dominant-baseline="middle" text-anchor="middle">12</text><text x="-3.7531585693359375" y="198.72" dominant-baseline="middle" text-anchor="middle">13</text><text x="-3.7531585693359375" y="215.214" dominant-baseline="middle" text-anchor="middle">14</text><text x="-3.7531585693359375" y="230.714" dominant-baseline="middle" text-anchor="middle">15</text><text x="-3.7531585693359375" y="246.214" dominant-baseline="middle" text-anchor="middle">16</text></g><line x1="139.79095278865637" x2="139.79095278865637" y1="0" y2="253.964" stroke="#111111" stroke-width="0.55"/></g><text x="213.54330708915" y="308.464" text-anchor="middle" font-family="Arial, sans-serif" font-size="7.5" fill="#111111">Pearson correlation coefficient between permuted variable &amp; prediction P(poH) - P(H)</text><g transform="translate(219.54330708915,28)"><g transform="translate(78,0)"><g fill="none" font-size="10" font-family="sans-serif" text-anchor="middle"><g class="tick" opacity="1" transform="translate(17.846253663087015,0)"><line stroke="#d9d9d9" y2="253.964" stroke-width="0.45"/><text fill="currentColor" y="256.964" dy="0.71em"/></g><g class="tick" opacity="1" transform="translate(61.79095278865637,0)"><line stroke="#d9d9d9" y2="253.964" stroke-width="0.45"/><text fill="currentColor" y="256.964" dy="0.71em"/></g><g class="tick" opacity="1" transform="translate(105.73565191422571,0)"><line stroke="#d9d9d9" y2="253.964" stroke-width="0.45"/><text fill="currentColor" y="256.964" dy="0.71em"/></g></g><g class="bar-with-dots"><rect x="61.79095278865637" y="4.15" width="23.525952982608686" height="7.2" rx="3.6" ry="3.6" fill="#bdbdbd"/><circle cx="65.99095278865637" cy="7.75" r="2.2" fill="#585858"/><circle cx="81.11690577126505" cy="7.75" r="2.2" fill="#111111"/></g><g class="bar-with-dots"><rect x="61.79095278865637" y="19.65" width="21.846725510357672" height="7.2" rx="3.6" ry="3.6" fill="#bdbdbd"/><circle cx="65.99095278865637" cy="23.25" r="2.2" fill="#585858"/><circle cx="79.43767829901404" cy="23.25" r="2.2" fill="#111111"/></g><g class="bar-with-dots"><rect x="41.589097033399526" y="35.15" width="20.201855755256844" height="7.2" rx="3.6" ry="3.6" fill="#c9c9c9"/><circle cx="57.59095278865637" cy="38.75" r="2.2" fill="#585858"/><circle cx="45.78909703339953" cy="38.75" r="2.2" fill="#8a8a8a"/></g><g class="bar-with-dots"><rect x="41.74579359372303" y="51.644000000000005" width="20.04515919493334" height="7.2" rx="3.6" ry="3.6" fill="#c9c9c9"/><circle cx="57.59095278865637" cy="55.244" r="2.2" fill="#585858"/><circle cx="45.94579359372303" cy="55.244" r="2.2" fill="#8a8a8a"/></g><g class="bar-with-dots"><rect x="61.79095278865637" y="68.138" width="17.16202549407977" height="7.2" rx="3.6" ry="3.6" fill="#bdbdbd"/><circle cx="65.99095278865637" cy="71.738" r="2.2" fill="#585858"/><circle cx="74.75297828273614" cy="71.738" r="2.2" fill="#111111"/></g><g class="bar-with-dots"><rect x="61.79095278865637" y="83.638" width="16.972025871013727" height="7.2" rx="3.6" ry="3.6" fill="#bdbdbd"/><circle cx="65.99095278865637" cy="87.238" r="2.2" fill="#585858"/><circle cx="74.5629786596701" cy="87.238" r="2.2" fill="#111111"/></g><g class="bar-with-dots"><rect x="45.28036977822279" y="99.138" width="16.510583010433578" height="7.2" rx="3.6" ry="3.6" fill="#c9c9c9"/><circle cx="57.59095278865637" cy="102.738" r="2.2" fill="#585858"/><circle cx="49.480369778222794" cy="102.738" r="2.2" fill="#8a8a8a"/></g><g class="bar-with-dots"><rect x="61.79095278865637" y="114.638" width="12.107123840253209" height="7.2" rx="3.6" ry="3.6" fill="#bdbdbd"/><circle cx="65.99095278865637" cy="118.238" r="2.2" fill="#585858"/><circle cx="69.69807662890958" cy="118.238" r="2.2" fill="#111111"/></g><g class="bar-with-dots"><rect x="61.79095278865637" y="131.132" width="10.010468576377335" height="7.2" rx="3.6" ry="3.6" fill="#bdbdbd"/><circle cx="65.99095278865637" cy="134.732" r="2.2" fill="#585858"/><circle cx="67.6014213650337" cy="134.732" r="2.2" fill="#111111"/></g><g class="bar-with-dots"><rect x="54.54454007988667" y="147.626" width="7.246412708769697" height="7.2" rx="3.6" ry="3.6" fill="#c9c9c9"/><circle cx="58.16774643427152" cy="151.226" r="2.2" fill="#585858"/><circle cx="58.16774643427152" cy="151.226" r="2.2" fill="#8a8a8a"/></g><g class="bar-with-dots"><rect x="54.90691739523721" y="163.126" width="6.884035393419161" height="7.2" rx="3.6" ry="3.6" fill="#c9c9c9"/><circle cx="58.348935091946785" cy="166.726" r="2.2" fill="#585858"/><circle cx="58.348935091946785" cy="166.726" r="2.2" fill="#8a8a8a"/></g><g class="bar-with-dots"><rect x="61.79095278865637" y="178.626" width="5.28" height="7.2" rx="3.6" ry="3.6" fill="#bdbdbd"/><circle cx="63.34509441934699" cy="182.226" r="2.2" fill="#585858"/><circle cx="63.34509441934699" cy="182.226" r="2.2" fill="#111111"/></g><g class="bar-with-dots"><rect x="61.79095278865637" y="194.126" width="5.28" height="7.2" rx="3.6" ry="3.6" fill="#bdbdbd"/><circle cx="63.05894851799124" cy="197.726" r="2.2" fill="#585858"/><circle cx="63.05894851799124" cy="197.726" r="2.2" fill="#111111"/></g><g class="bar-with-dots"><rect x="60.048022131683894" y="210.62" width="5.28" height="7.2" rx="3.6" ry="3.6" fill="#c9c9c9"/><circle cx="60.91948746017013" cy="214.22" r="2.2" fill="#585858"/><circle cx="60.91948746017013" cy="214.22" r="2.2" fill="#8a8a8a"/></g><g class="bar-with-dots"><rect x="60.52346612543212" y="227.114" width="5.28" height="7.2" rx="3.6" ry="3.6" fill="#c9c9c9"/><circle cx="61.157209457044246" cy="230.714" r="2.2" fill="#585858"/><circle cx="61.157209457044246" cy="230.714" r="2.2" fill="#8a8a8a"/></g><g class="bar-with-dots"><rect x="61.10429363053793" y="242.614" width="5.28" height="7.2" rx="3.6" ry="3.6" fill="#c9c9c9"/><circle cx="61.447623209597154" cy="246.214" r="2.2" fill="#585858"/><circle cx="61.447623209597154" cy="246.214" r="2.2" fill="#8a8a8a"/></g><text class="value-label" x="55.79095278865637" y="7.75" text-anchor="end" dominant-baseline="middle" font-family="Arial, sans-serif" font-size="5.2" font-weight="400" fill="#333333">.011</text><text class="value-label" x="55.79095278865637" y="23.25" text-anchor="end" dominant-baseline="middle" font-family="Arial, sans-serif" font-size="5.2" font-weight="400" fill="#333333">.010</text><text class="value-label" x="67.79095278865637" y="38.75" text-anchor="start" dominant-baseline="middle" font-family="Arial, sans-serif" font-size="5.2" font-weight="400" fill="#333333">−.009</text><text class="value-label" x="67.79095278865637" y="55.244" text-anchor="start" dominant-baseline="middle" font-family="Arial, sans-serif" font-size="5.2" font-weight="400" fill="#333333">−.009</text><text class="value-label" x="55.79095278865637" y="71.738" text-anchor="end" dominant-baseline="middle" font-family="Arial, sans-serif" font-size="5.2" font-weight="400" fill="#333333">.008</text><text class="value-label" x="55.79095278865637" y="87.238" text-anchor="end" dominant-baseline="middle" font-family="Arial, sans-serif" font-size="5.2" font-weight="400" fill="#333333">.008</text><text class="value-label" x="67.79095278865637" y="102.738" text-anchor="start" dominant-baseline="middle" font-family="Arial, sans-serif" font-size="5.2" font-weight="400" fill="#333333">−.008</text><text class="value-label" x="55.79095278865637" y="118.238" text-anchor="end" dominant-baseline="middle" font-family="Arial, sans-serif" font-size="5.2" font-weight="400" fill="#333333">.006</text><text class="value-label" x="55.79095278865637" y="134.732" text-anchor="end" dominant-baseline="middle" font-family="Arial, sans-serif" font-size="5.2" font-weight="400" fill="#333333">.005</text><text class="value-label" x="67.79095278865637" y="151.226" text-anchor="start" dominant-baseline="middle" font-family="Arial, sans-serif" font-size="5.2" font-weight="400" fill="#333333">−.003</text><text class="value-label" x="67.79095278865637" y="166.726" text-anchor="start" dominant-baseline="middle" font-family="Arial, sans-serif" font-size="5.2" font-weight="400" fill="#333333">−.003</text><text class="value-label" x="55.79095278865637" y="182.226" text-anchor="end" dominant-baseline="middle" font-family="Arial, sans-serif" font-size="5.2" font-weight="400" fill="#333333">.001</text><text class="value-label" x="55.79095278865637" y="197.726" text-anchor="end" dominant-baseline="middle" font-family="Arial, sans-serif" font-size="5.2" font-weight="400" fill="#333333">.001</text><text class="value-label" x="67.79095278865637" y="214.22" text-anchor="start" dominant-baseline="middle" font-family="Arial, sans-serif" font-size="5.2" font-weight="400" fill="#333333">−.001</text><text class="value-label" x="67.79095278865637" y="230.714" text-anchor="start" dominant-baseline="middle" font-family="Arial, sans-serif" font-size="5.2" font-weight="400" fill="#333333">−.001</text><text class="value-label" x="67.79095278865637" y="246.214" text-anchor="start" dominant-baseline="middle" font-family="Arial, sans-serif" font-size="5.2" font-weight="400" fill="#333333">.000</text><g transform="translate(0,253.964)" fill="none" font-size="10" font-family="sans-serif" text-anchor="middle"><path class="domain" stroke="#111111" d="M0,0H119.54330708915" stroke-width="0.65"/><g class="tick" opacity="1" transform="translate(17.846253663087015,0)"><line stroke="#111111" y2="4.5" stroke-width="0.45"/><text fill="#111111" y="9" dy="0.15em" font-family="Arial, sans-serif" font-size="7" font-weight="400">−.02</text></g><g class="tick" opacity="1" transform="translate(61.79095278865637,0)"><line stroke="#111111" y2="4.5" stroke-width="0.45"/><text fill="#111111" y="9" dy="0.15em" font-family="Arial, sans-serif" font-size="7" font-weight="400">0</text></g><g class="tick" opacity="1" transform="translate(105.73565191422571,0)"><line stroke="#111111" y2="4.5" stroke-width="0.45"/><text fill="#111111" y="9" dy="0.15em" font-family="Arial, sans-serif" font-size="7" font-weight="400">.02</text></g></g><g transform="translate(0,253.964)"><line class="minor-tick" x1="39.81860322587168" x2="39.81860322587168" y1="0" y2="3" stroke="#111111" stroke-width="0.45"/><line class="minor-tick" x1="83.76330235144106" x2="83.76330235144106" y1="0" y2="3" stroke="#111111" stroke-width="0.45"/></g></g><line class="row-separator" x1="0" x2="197.54330708915" y1="15.5" y2="15.5" stroke="#ebebeb" stroke-width="0.3825"/><line class="row-separator" x1="0" x2="197.54330708915" y1="31" y2="31" stroke="#ebebeb" stroke-width="0.3825"/><line class="row-separator" x1="0" x2="197.54330708915" y1="46.5" y2="46.5" stroke="#ebebeb" stroke-width="0.3825"/><line class="row-separator" x1="0" x2="197.54330708915" y1="63.988" y2="63.988" stroke="#ebebeb" stroke-width="0.3825"/><line class="row-separator" x1="0" x2="197.54330708915" y1="79.488" y2="79.488" stroke="#ebebeb" stroke-width="0.3825"/><line class="row-separator" x1="0" x2="197.54330708915" y1="94.988" y2="94.988" stroke="#ebebeb" stroke-width="0.3825"/><line class="row-separator" x1="0" x2="197.54330708915" y1="110.488" y2="110.488" stroke="#ebebeb" stroke-width="0.3825"/><line class="row-separator" x1="0" x2="197.54330708915" y1="125.988" y2="125.988" stroke="#ebebeb" stroke-width="0.3825"/><line class="row-separator" x1="0" x2="197.54330708915" y1="143.476" y2="143.476" stroke="#ebebeb" stroke-width="0.3825"/><line class="row-separator" x1="0" x2="197.54330708915" y1="158.976" y2="158.976" stroke="#ebebeb" stroke-width="0.3825"/><line class="row-separator" x1="0" x2="197.54330708915" y1="174.476" y2="174.476" stroke="#ebebeb" stroke-width="0.3825"/><line class="row-separator" x1="0" x2="197.54330708915" y1="189.976" y2="189.976" stroke="#ebebeb" stroke-width="0.3825"/><line class="row-separator" x1="0" x2="197.54330708915" y1="205.476" y2="205.476" stroke="#ebebeb" stroke-width="0.3825"/><line class="row-separator" x1="0" x2="197.54330708915" y1="222.964" y2="222.964" stroke="#ebebeb" stroke-width="0.3825"/><line class="row-separator" x1="0" x2="197.54330708915" y1="238.464" y2="238.464" stroke="#ebebeb" stroke-width="0.3825"/><g fill="#111111" font-family="Arial, sans-serif" font-size="6.2"><text x="77" y="9.75" text-anchor="end"><tspan x="77" dy="0">U.S. Const. amend. XIV</tspan></text><text x="77" y="25.25" text-anchor="end"><tspan x="77" dy="0">Equal Protection Clause</tspan></text><text x="77" y="40.75" text-anchor="end"><tspan x="77" dy="0">Syllabus</tspan></text><text x="77" y="57.244" text-anchor="end"><tspan x="77" dy="-3.565">Naturrechtlich-freiheitliche</tspan><tspan x="77" dy="7.13">Seite</tspan></text><text x="77" y="73.738" text-anchor="end"><tspan x="77" dy="0">Right to Privacy</tspan></text><text x="77" y="89.238" text-anchor="end"><tspan x="77" dy="0">Recht auf Sicherheit</tspan></text><text x="77" y="104.738" text-anchor="end"><tspan x="77" dy="0">Fundamental Law</tspan></text><text x="77" y="120.238" text-anchor="end"><tspan x="77" dy="0">U.S. Const. amend. V</tspan></text><text x="77" y="136.732" text-anchor="end"><tspan x="77" dy="-3.565">Majority Opinion/</tspan><tspan x="77" dy="7.13">Concurring Opinion</tspan></text><text x="77" y="153.226" text-anchor="end"><tspan x="77" dy="0">Freedom of Association</tspan></text><text x="77" y="168.726" text-anchor="end"><tspan x="77" dy="0">Wirtschaftliche Seite</tspan></text><text x="77" y="184.226" text-anchor="end"><tspan x="77" dy="0">Reporter</tspan></text><text x="77" y="199.726" text-anchor="end"><tspan x="77" dy="0">Right to Liberty</tspan></text><text x="77" y="216.22" text-anchor="end"><tspan x="77" dy="-3.565">Souveränitätsrechtliche</tspan><tspan x="77" dy="7.13">Seite</tspan></text><text x="77" y="232.714" text-anchor="end"><tspan x="77" dy="0">inalienable rights</tspan></text><text x="77" y="248.214" text-anchor="end"><tspan x="77" dy="0">Dissenting Opinion</tspan></text></g><text x="-3.7531585693359375" y="-5" text-anchor="middle" font-family="Arial, sans-serif" font-size="3.6799999999999997" font-weight="700" fill="#111111">Ra.</text><g><circle cx="-3.7531585693359375" cy="7.75" r="4.03" fill="#e8e8e8" stroke="#d6d6d6" stroke-width="0.7"/><circle cx="-3.7531585693359375" cy="23.25" r="4.03" fill="#e8e8e8" stroke="#d6d6d6" stroke-width="0.7"/><circle cx="-3.7531585693359375" cy="38.75" r="4.03" fill="#e8e8e8" stroke="#d6d6d6" stroke-width="0.7"/><circle cx="-3.7531585693359375" cy="55.244" r="4.03" fill="#e8e8e8" stroke="#d6d6d6" stroke-width="0.7"/><circle cx="-3.7531585693359375" cy="71.738" r="4.03" fill="#e8e8e8" stroke="#d6d6d6" stroke-width="0.7"/><circle cx="-3.7531585693359375" cy="87.238" r="4.03" fill="#e8e8e8" stroke="#d6d6d6" stroke-width="0.7"/><circle cx="-3.7531585693359375" cy="102.738" r="4.03" fill="#e8e8e8" stroke="#d6d6d6" stroke-width="0.7"/><circle cx="-3.7531585693359375" cy="118.238" r="4.03" fill="#e8e8e8" stroke="#d6d6d6" stroke-width="0.7"/><circle cx="-3.7531585693359375" cy="134.732" r="4.03" fill="#e8e8e8" stroke="#d6d6d6" stroke-width="0.7"/><circle cx="-3.7531585693359375" cy="151.226" r="4.03" fill="#e8e8e8" stroke="#d6d6d6" stroke-width="0.7"/><circle cx="-3.7531585693359375" cy="166.726" r="4.03" fill="#e8e8e8" stroke="#d6d6d6" stroke-width="0.7"/><circle cx="-3.7531585693359375" cy="182.226" r="4.03" fill="#e8e8e8" stroke="#d6d6d6" stroke-width="0.7"/><circle cx="-3.7531585693359375" cy="197.726" r="4.03" fill="#e8e8e8" stroke="#d6d6d6" stroke-width="0.7"/><circle cx="-3.7531585693359375" cy="214.22" r="4.03" fill="#e8e8e8" stroke="#d6d6d6" stroke-width="0.7"/><circle cx="-3.7531585693359375" cy="230.714" r="4.03" fill="#e8e8e8" stroke="#d6d6d6" stroke-width="0.7"/><circle cx="-3.7531585693359375" cy="246.214" r="4.03" fill="#e8e8e8" stroke="#d6d6d6" stroke-width="0.7"/></g><g font-family="Arial, sans-serif" font-size="4.048" fill="#111111"><text x="-3.7531585693359375" y="7.75" dominant-baseline="middle" text-anchor="middle">17</text><text x="-3.7531585693359375" y="23.25" dominant-baseline="middle" text-anchor="middle">18</text><text x="-3.7531585693359375" y="38.75" dominant-baseline="middle" text-anchor="middle">19</text><text x="-3.7531585693359375" y="55.244" dominant-baseline="middle" text-anchor="middle">20</text><text x="-3.7531585693359375" y="71.738" dominant-baseline="middle" text-anchor="middle">21</text><text x="-3.7531585693359375" y="87.238" dominant-baseline="middle" text-anchor="middle">22</text><text x="-3.7531585693359375" y="102.738" dominant-baseline="middle" text-anchor="middle">23</text><text x="-3.7531585693359375" y="118.238" dominant-baseline="middle" text-anchor="middle">24</text><text x="-3.7531585693359375" y="134.732" dominant-baseline="middle" text-anchor="middle">25</text><text x="-3.7531585693359375" y="151.226" dominant-baseline="middle" text-anchor="middle">26</text><text x="-3.7531585693359375" y="166.726" dominant-baseline="middle" text-anchor="middle">27</text><text x="-3.7531585693359375" y="182.226" dominant-baseline="middle" text-anchor="middle">28</text><text x="-3.7531585693359375" y="197.726" dominant-baseline="middle" text-anchor="middle">29</text><text x="-3.7531585693359375" y="214.22" dominant-baseline="middle" text-anchor="middle">30</text><text x="-3.7531585693359375" y="230.714" dominant-baseline="middle" text-anchor="middle">31</text><text x="-3.7531585693359375" y="246.214" dominant-baseline="middle" text-anchor="middle">32</text></g><line x1="139.79095278865637" x2="139.79095278865637" y1="0" y2="253.964" stroke="#111111" stroke-width="0.55"/></g></svg>