<svg id="fig-top20-9-svg" width="11.3cm" height="18.3cm" viewBox="0 0 427.0866141783 691.6535433153" xmlns="http://www.w3.org/2000/svg"><text x="213.54330708915" y="16" text-anchor="middle" font-family="Arial, sans-serif" font-size="9" font-weight="700" fill="#111111">Permutation importances</text><g transform="translate(12,28)"><g transform="translate(154,0)"><g fill="none" font-size="10" font-family="sans-serif" text-anchor="middle"><g class="tick" opacity="1" transform="translate(93.0910674459006,0)"><line stroke="#d9d9d9" y2="364.36" stroke-width="0.55"/><text fill="currentColor" y="367.36" dy="0.71em"/></g><g class="tick" opacity="1" transform="translate(201.37670721047,0)"><line stroke="#d9d9d9" y2="364.36" stroke-width="0.55"/><text fill="currentColor" y="367.36" dy="0.71em"/></g></g><g class="bar-with-dots"><rect x="93.0910674459006" y="7.58" width="118.33841879998822" height="7.2" rx="3.6" ry="3.6" fill="#bdbdbd"/><circle cx="97.29106744590061" cy="11.18" r="2.2" fill="#585858"/><circle cx="207.22948624588884" cy="11.18" r="2.2" fill="#111111"/></g><g class="bar-with-dots"><rect x="93.0910674459006" y="27.759999999999998" width="79.21219191745656" height="7.2" rx="3.6" ry="3.6" fill="#bdbdbd"/><circle cx="97.29106744590061" cy="31.36" r="2.2" fill="#585858"/><circle cx="168.10325936335718" cy="31.36" r="2.2" fill="#111111"/></g><g class="bar-with-dots"><rect x="21.65712796683219" y="45.76" width="71.43393947906841" height="7.2" rx="3.6" ry="3.6" fill="#c9c9c9"/><circle cx="88.8910674459006" cy="49.36" r="2.2" fill="#585858"/><circle cx="25.857127966832188" cy="49.36" r="2.2" fill="#8a8a8a"/></g><g class="bar-with-dots"><rect x="24.476990025897575" y="63.76" width="68.61407742000303" height="7.2" rx="3.6" ry="3.6" fill="#c9c9c9"/><circle cx="88.8910674459006" cy="67.36" r="2.2" fill="#585858"/><circle cx="28.676990025897574" cy="67.36" r="2.2" fill="#8a8a8a"/></g><g class="bar-with-dots"><rect x="25.866849103025885" y="81.76" width="67.22421834287472" height="7.2" rx="3.6" ry="3.6" fill="#c9c9c9"/><circle cx="88.8910674459006" cy="85.36" r="2.2" fill="#585858"/><circle cx="30.066849103025884" cy="85.36" r="2.2" fill="#8a8a8a"/></g><g class="bar-with-dots"><rect x="30.30519602219425" y="99.76" width="62.785871423706354" height="7.2" rx="3.6" ry="3.6" fill="#c9c9c9"/><circle cx="88.8910674459006" cy="103.36" r="2.2" fill="#585858"/><circle cx="34.50519602219425" cy="103.36" r="2.2" fill="#8a8a8a"/></g><g class="bar-with-dots"><rect x="33.70870223711782" y="117.76" width="59.38236520878279" height="7.2" rx="3.6" ry="3.6" fill="#c9c9c9"/><circle cx="88.8910674459006" cy="121.36" r="2.2" fill="#585858"/><circle cx="37.90870223711782" cy="121.36" r="2.2" fill="#8a8a8a"/></g><g class="bar-with-dots"><rect x="34.48036037527479" y="135.76000000000002" width="58.610707070625814" height="7.2" rx="3.6" ry="3.6" fill="#c9c9c9"/><circle cx="88.8910674459006" cy="139.36" r="2.2" fill="#585858"/><circle cx="38.680360375274795" cy="139.36" r="2.2" fill="#8a8a8a"/></g><g class="bar-with-dots"><rect x="93.0910674459006" y="153.76000000000002" width="50.046385482897776" height="7.2" rx="3.6" ry="3.6" fill="#bdbdbd"/><circle cx="97.29106744590061" cy="157.36" r="2.2" fill="#585858"/><circle cx="138.9374529287984" cy="157.36" r="2.2" fill="#111111"/></g><g class="bar-with-dots"><rect x="46.114155633984915" y="171.76000000000002" width="46.97691181191569" height="7.2" rx="3.6" ry="3.6" fill="#c9c9c9"/><circle cx="88.8910674459006" cy="175.36" r="2.2" fill="#585858"/><circle cx="50.31415563398492" cy="175.36" r="2.2" fill="#8a8a8a"/></g><g class="bar-with-dots"><rect x="48.4858712835515" y="189.76000000000002" width="44.6051961623491" height="7.2" rx="3.6" ry="3.6" fill="#c9c9c9"/><circle cx="88.8910674459006" cy="193.36" r="2.2" fill="#585858"/><circle cx="52.685871283551506" cy="193.36" r="2.2" fill="#8a8a8a"/></g><g class="bar-with-dots"><rect x="93.0910674459006" y="207.76000000000002" width="34.62630386425647" height="7.2" rx="3.6" ry="3.6" fill="#bdbdbd"/><circle cx="97.29106744590061" cy="211.36" r="2.2" fill="#585858"/><circle cx="123.51737131015707" cy="211.36" r="2.2" fill="#111111"/></g><g class="bar-with-dots"><rect x="63.604786007737005" y="225.76000000000002" width="29.4862814381636" height="7.2" rx="3.6" ry="3.6" fill="#c9c9c9"/><circle cx="88.8910674459006" cy="229.36" r="2.2" fill="#585858"/><circle cx="67.80478600773701" cy="229.36" r="2.2" fill="#8a8a8a"/></g><g class="bar-with-dots"><rect x="66.60045906908411" y="243.76000000000002" width="26.490608376816496" height="7.2" rx="3.6" ry="3.6" fill="#c9c9c9"/><circle cx="88.8910674459006" cy="247.36" r="2.2" fill="#585858"/><circle cx="70.80045906908411" cy="247.36" r="2.2" fill="#8a8a8a"/></g><g class="bar-with-dots"><rect x="93.0910674459006" y="261.76" width="21.208050406181826" height="7.2" rx="3.6" ry="3.6" fill="#bdbdbd"/><circle cx="97.29106744590061" cy="265.36" r="2.2" fill="#585858"/><circle cx="110.09911785208243" cy="265.36" r="2.2" fill="#111111"/></g><g class="bar-with-dots"><rect x="93.0910674459006" y="279.76" width="20.37941812772408" height="7.2" rx="3.6" ry="3.6" fill="#bdbdbd"/><circle cx="97.29106744590061" cy="283.36" r="2.2" fill="#585858"/><circle cx="109.27048557362468" cy="283.36" r="2.2" fill="#111111"/></g><g class="bar-with-dots"><rect x="93.0910674459006" y="297.76" width="15.053132805163642" height="7.2" rx="3.6" ry="3.6" fill="#bdbdbd"/><circle cx="97.29106744590061" cy="301.36" r="2.2" fill="#585858"/><circle cx="103.94420025106425" cy="301.36" r="2.2" fill="#111111"/></g><g class="bar-with-dots"><rect x="93.0910674459006" y="315.76" width="14.200288676602142" height="7.2" rx="3.6" ry="3.6" fill="#bdbdbd"/><circle cx="97.29106744590061" cy="319.36" r="2.2" fill="#585858"/><circle cx="103.09135612250275" cy="319.36" r="2.2" fill="#111111"/></g><g class="bar-with-dots"><rect x="93.0910674459006" y="333.76" width="13.364270954478442" height="7.2" rx="3.6" ry="3.6" fill="#bdbdbd"/><circle cx="97.29106744590061" cy="337.36" r="2.2" fill="#585858"/><circle cx="102.25533840037905" cy="337.36" r="2.2" fill="#111111"/></g><g class="bar-with-dots"><rect x="93.0910674459006" y="351.76" width="10.270939084279505" height="7.2" rx="3.6" ry="3.6" fill="#bdbdbd"/><circle cx="97.29106744590061" cy="355.36" r="2.2" fill="#585858"/><circle cx="99.16200653018011" cy="355.36" r="2.2" fill="#111111"/></g><text class="value-label" x="87.0910674459006" y="11.18" text-anchor="end" dominant-baseline="middle" font-family="Arial, sans-serif" font-size="6.8" font-weight="400" fill="#333333">.055</text><text class="value-label" x="87.0910674459006" y="31.36" text-anchor="end" dominant-baseline="middle" font-family="Arial, sans-serif" font-size="6.8" font-weight="400" fill="#333333">.037</text><text class="value-label" x="99.0910674459006" y="49.36" text-anchor="start" dominant-baseline="middle" font-family="Arial, sans-serif" font-size="6.8" font-weight="400" fill="#333333">−.033</text><text class="value-label" x="99.0910674459006" y="67.36" text-anchor="start" dominant-baseline="middle" font-family="Arial, sans-serif" font-size="6.8" font-weight="400" fill="#333333">−.032</text><text class="value-label" x="99.0910674459006" y="85.36" text-anchor="start" dominant-baseline="middle" font-family="Arial, sans-serif" font-size="6.8" font-weight="400" fill="#333333">−.031</text><text class="value-label" x="99.0910674459006" y="103.36" text-anchor="start" dominant-baseline="middle" font-family="Arial, sans-serif" font-size="6.8" font-weight="400" fill="#333333">−.029</text><text class="value-label" x="99.0910674459006" y="121.36" text-anchor="start" dominant-baseline="middle" font-family="Arial, sans-serif" font-size="6.8" font-weight="400" fill="#333333">−.027</text><text class="value-label" x="99.0910674459006" y="139.36" text-anchor="start" dominant-baseline="middle" font-family="Arial, sans-serif" font-size="6.8" font-weight="400" fill="#333333">−.027</text><text class="value-label" x="87.0910674459006" y="157.36" text-anchor="end" dominant-baseline="middle" font-family="Arial, sans-serif" font-size="6.8" font-weight="400" fill="#333333">.023</text><text class="value-label" x="99.0910674459006" y="175.36" text-anchor="start" dominant-baseline="middle" font-family="Arial, sans-serif" font-size="6.8" font-weight="400" fill="#333333">−.022</text><text class="value-label" x="99.0910674459006" y="193.36" text-anchor="start" dominant-baseline="middle" font-family="Arial, sans-serif" font-size="6.8" font-weight="400" fill="#333333">−.021</text><text class="value-label" x="87.0910674459006" y="211.36" text-anchor="end" dominant-baseline="middle" font-family="Arial, sans-serif" font-size="6.8" font-weight="400" fill="#333333">.016</text><text class="value-label" x="99.0910674459006" y="229.36" text-anchor="start" dominant-baseline="middle" font-family="Arial, sans-serif" font-size="6.8" font-weight="400" fill="#333333">−.014</text><text class="value-label" x="99.0910674459006" y="247.36" text-anchor="start" dominant-baseline="middle" font-family="Arial, sans-serif" font-size="6.8" font-weight="400" fill="#333333">−.012</text><text class="value-label" x="87.0910674459006" y="265.36" text-anchor="end" dominant-baseline="middle" font-family="Arial, sans-serif" font-size="6.8" font-weight="400" fill="#333333">.010</text><text class="value-label" x="87.0910674459006" y="283.36" text-anchor="end" dominant-baseline="middle" font-family="Arial, sans-serif" font-size="6.8" font-weight="400" fill="#333333">.009</text><text class="value-label" x="87.0910674459006" y="301.36" text-anchor="end" dominant-baseline="middle" font-family="Arial, sans-serif" font-size="6.8" font-weight="400" fill="#333333">.007</text><text class="value-label" x="87.0910674459006" y="319.36" text-anchor="end" dominant-baseline="middle" font-family="Arial, sans-serif" font-size="6.8" font-weight="400" fill="#333333">.007</text><text class="value-label" x="87.0910674459006" y="337.36" text-anchor="end" dominant-baseline="middle" font-family="Arial, sans-serif" font-size="6.8" font-weight="400" fill="#333333">.006</text><text class="value-label" x="87.0910674459006" y="355.36" text-anchor="end" dominant-baseline="middle" font-family="Arial, sans-serif" font-size="6.8" font-weight="400" fill="#333333">.005</text><g transform="translate(0,364.36)" fill="none" font-size="10" font-family="sans-serif" text-anchor="middle"><path class="domain" stroke="#111111" d="M0,0H233.0866141783" stroke-width="0.75"/><g class="tick" opacity="1" transform="translate(93.0910674459006,0)"><line stroke="#111111" y2="4.5" stroke-width="0.55"/><text fill="#111111" y="9" dy="0.15em" font-family="Arial, sans-serif" font-size="7" font-weight="400">0</text></g><g class="tick" opacity="1" transform="translate(201.37670721047,0)"><line stroke="#111111" y2="4.5" stroke-width="0.55"/><text fill="#111111" y="9" dy="0.15em" font-family="Arial, sans-serif" font-size="7" font-weight="400">.05</text></g></g><g transform="translate(0,364.36)"><line class="minor-tick" x1="147.2338873281853" x2="147.2338873281853" y1="0" y2="3" stroke="#111111" stroke-width="0.55"/></g></g><line class="row-separator" x1="0" x2="387.0866141783" y1="22.36" y2="22.36" stroke="#ebebeb" stroke-width="0.4675"/><line class="row-separator" x1="0" x2="387.0866141783" y1="40.36" y2="40.36" stroke="#ebebeb" stroke-width="0.4675"/><line class="row-separator" x1="0" x2="387.0866141783" y1="58.36" y2="58.36" stroke="#ebebeb" stroke-width="0.4675"/><line class="row-separator" x1="0" x2="387.0866141783" y1="76.36" y2="76.36" stroke="#ebebeb" stroke-width="0.4675"/><line class="row-separator" x1="0" x2="387.0866141783" y1="94.36" y2="94.36" stroke="#ebebeb" stroke-width="0.4675"/><line class="row-separator" x1="0" x2="387.0866141783" y1="112.36" y2="112.36" stroke="#ebebeb" stroke-width="0.4675"/><line class="row-separator" x1="0" x2="387.0866141783" y1="130.36" y2="130.36" stroke="#ebebeb" stroke-width="0.4675"/><line class="row-separator" x1="0" x2="387.0866141783" y1="148.36" y2="148.36" stroke="#ebebeb" stroke-width="0.4675"/><line class="row-separator" x1="0" x2="387.0866141783" y1="166.36" y2="166.36" stroke="#ebebeb" stroke-width="0.4675"/><line class="row-separator" x1="0" x2="387.0866141783" y1="184.36" y2="184.36" stroke="#ebebeb" stroke-width="0.4675"/><line class="row-separator" x1="0" x2="387.0866141783" y1="202.36" y2="202.36" stroke="#ebebeb" stroke-width="0.4675"/><line class="row-separator" x1="0" x2="387.0866141783" y1="220.36" y2="220.36" stroke="#ebebeb" stroke-width="0.4675"/><line class="row-separator" x1="0" x2="387.0866141783" y1="238.36" y2="238.36" stroke="#ebebeb" stroke-width="0.4675"/><line class="row-separator" x1="0" x2="387.0866141783" y1="256.36" y2="256.36" stroke="#ebebeb" stroke-width="0.4675"/><line class="row-separator" x1="0" x2="387.0866141783" y1="274.36" y2="274.36" stroke="#ebebeb" stroke-width="0.4675"/><line class="row-separator" x1="0" x2="387.0866141783" y1="292.36" y2="292.36" stroke="#ebebeb" stroke-width="0.4675"/><line class="row-separator" x1="0" x2="387.0866141783" y1="310.36" y2="310.36" stroke="#ebebeb" stroke-width="0.4675"/><line class="row-separator" x1="0" x2="387.0866141783" y1="328.36" y2="328.36" stroke="#ebebeb" stroke-width="0.4675"/><line class="row-separator" x1="0" x2="387.0866141783" y1="346.36" y2="346.36" stroke="#ebebeb" stroke-width="0.4675"/><g fill="#111111" font-family="Arial, sans-serif" font-size="7"><text x="153" y="13.18" text-anchor="end"><tspan x="153" dy="-4.0249999999999995">U.S. Const. amend. IV &amp;</tspan><tspan x="153" dy="8.049999999999999">unreasonable searches &amp; seizures</tspan></text><text x="153" y="33.36" text-anchor="end"><tspan x="153" dy="0">Recht auf Sicherheit</tspan></text><text x="153" y="51.36" text-anchor="end"><tspan x="153" dy="0">Teil des Urteils</tspan></text><text x="153" y="69.36" text-anchor="end"><tspan x="153" dy="0">Right to Privacy</tspan></text><text x="153" y="87.36" text-anchor="end"><tspan x="153" dy="0">U.S. Const. amend. XIV</tspan></text><text x="153" y="105.36" text-anchor="end"><tspan x="153" dy="0">Fundamental Law</tspan></text><text x="153" y="123.36" text-anchor="end"><tspan x="153" dy="0">Due Process Clause</tspan></text><text x="153" y="141.36" text-anchor="end"><tspan x="153" dy="0">Berufsfreiheit</tspan></text><text x="153" y="159.36" text-anchor="end"><tspan x="153" dy="0">General Welfare</tspan></text><text x="153" y="177.36" text-anchor="end"><tspan x="153" dy="0">U.S. Const. amend. I &amp; seine Freiheiten</tspan></text><text x="153" y="195.36" text-anchor="end"><tspan x="153" dy="0">Equal Protection Clause</tspan></text><text x="153" y="213.36" text-anchor="end"><tspan x="153" dy="0">Right to Life</tspan></text><text x="153" y="231.36" text-anchor="end"><tspan x="153" dy="0">Right to Liberty</tspan></text><text x="153" y="249.36" text-anchor="end"><tspan x="153" dy="0">Right to Property</tspan></text><text x="153" y="267.36" text-anchor="end"><tspan x="153" dy="0">Police Power</tspan></text><text x="153" y="285.36" text-anchor="end"><tspan x="153" dy="0">Souveränität &amp; Unabhängigkeit</tspan></text><text x="153" y="303.36" text-anchor="end"><tspan x="153" dy="0">Freedom of Association</tspan></text><text x="153" y="321.36" text-anchor="end"><tspan x="153" dy="0">inalienable rights</tspan></text><text x="153" y="339.36" text-anchor="end"><tspan x="153" dy="0">U.S. Const. amend. V</tspan></text><text x="153" y="357.36" text-anchor="end"><tspan x="153" dy="0">Good government</tspan></text></g><text x="-2.4240000000000004" y="-5" text-anchor="middle" font-family="Arial, sans-serif" font-size="5.44" font-weight="700" fill="#111111">Ra.</text><g><circle cx="-2.4240000000000004" cy="11.18" r="5.576" fill="#e8e8e8" stroke="#d6d6d6" stroke-width="0.7"/><circle cx="-2.4240000000000004" cy="31.36" r="5.576" fill="#e8e8e8" stroke="#d6d6d6" stroke-width="0.7"/><circle cx="-2.4240000000000004" cy="49.36" r="5.576" fill="#e8e8e8" stroke="#d6d6d6" stroke-width="0.7"/><circle cx="-2.4240000000000004" cy="67.36" r="5.576" fill="#e8e8e8" stroke="#d6d6d6" stroke-width="0.7"/><circle cx="-2.4240000000000004" cy="85.36" r="5.576" fill="#e8e8e8" stroke="#d6d6d6" stroke-width="0.7"/><circle cx="-2.4240000000000004" cy="103.36" r="5.576" fill="#e8e8e8" stroke="#d6d6d6" stroke-width="0.7"/><circle cx="-2.4240000000000004" cy="121.36" r="5.576" fill="#e8e8e8" stroke="#d6d6d6" stroke-width="0.7"/><circle cx="-2.4240000000000004" cy="139.36" r="5.576" fill="#e8e8e8" stroke="#d6d6d6" stroke-width="0.7"/><circle cx="-2.4240000000000004" cy="157.36" r="5.576" fill="#e8e8e8" stroke="#d6d6d6" stroke-width="0.7"/><circle cx="-2.4240000000000004" cy="175.36" r="5.576" fill="#e8e8e8" stroke="#d6d6d6" stroke-width="0.7"/><circle cx="-2.4240000000000004" cy="193.36" r="5.576" fill="#e8e8e8" stroke="#d6d6d6" stroke-width="0.7"/><circle cx="-2.4240000000000004" cy="211.36" r="5.576" fill="#e8e8e8" stroke="#d6d6d6" stroke-width="0.7"/><circle cx="-2.4240000000000004" cy="229.36" r="5.576" fill="#e8e8e8" stroke="#d6d6d6" stroke-width="0.7"/><circle cx="-2.4240000000000004" cy="247.36" r="5.576" fill="#e8e8e8" stroke="#d6d6d6" stroke-width="0.7"/><circle cx="-2.4240000000000004" cy="265.36" r="5.576" fill="#e8e8e8" stroke="#d6d6d6" stroke-width="0.7"/><circle cx="-2.4240000000000004" cy="283.36" r="5.576" fill="#e8e8e8" stroke="#d6d6d6" stroke-width="0.7"/><circle cx="-2.4240000000000004" cy="301.36" r="5.576" fill="#e8e8e8" stroke="#d6d6d6" stroke-width="0.7"/><circle cx="-2.4240000000000004" cy="319.36" r="5.576" fill="#e8e8e8" stroke="#d6d6d6" stroke-width="0.7"/><circle cx="-2.4240000000000004" cy="337.36" r="5.576" fill="#e8e8e8" stroke="#d6d6d6" stroke-width="0.7"/><circle cx="-2.4240000000000004" cy="355.36" r="5.576" fill="#e8e8e8" stroke="#d6d6d6" stroke-width="0.7"/></g><g font-family="Arial, sans-serif" font-size="5.984" fill="#111111"><text x="-2.4240000000000004" y="11.18" dominant-baseline="middle" text-anchor="middle">1</text><text x="-2.4240000000000004" y="31.36" dominant-baseline="middle" text-anchor="middle">2</text><text x="-2.4240000000000004" y="49.36" dominant-baseline="middle" text-anchor="middle">3</text><text x="-2.4240000000000004" y="67.36" dominant-baseline="middle" text-anchor="middle">4</text><text x="-2.4240000000000004" y="85.36" dominant-baseline="middle" text-anchor="middle">5</text><text x="-2.4240000000000004" y="103.36" dominant-baseline="middle" text-anchor="middle">6</text><text x="-2.4240000000000004" y="121.36" dominant-baseline="middle" text-anchor="middle">7</text><text x="-2.4240000000000004" y="139.36" dominant-baseline="middle" text-anchor="middle">8</text><text x="-2.4240000000000004" y="157.36" dominant-baseline="middle" text-anchor="middle">9</text><text x="-2.4240000000000004" y="175.36" dominant-baseline="middle" text-anchor="middle">10</text><text x="-2.4240000000000004" y="193.36" dominant-baseline="middle" text-anchor="middle">11</text><text x="-2.4240000000000004" y="211.36" dominant-baseline="middle" text-anchor="middle">12</text><text x="-2.4240000000000004" y="229.36" dominant-baseline="middle" text-anchor="middle">13</text><text x="-2.4240000000000004" y="247.36" dominant-baseline="middle" text-anchor="middle">14</text><text x="-2.4240000000000004" y="265.36" dominant-baseline="middle" text-anchor="middle">15</text><text x="-2.4240000000000004" y="283.36" dominant-baseline="middle" text-anchor="middle">16</text><text x="-2.4240000000000004" y="301.36" dominant-baseline="middle" text-anchor="middle">17</text><text x="-2.4240000000000004" y="319.36" dominant-baseline="middle" text-anchor="middle">18</text><text x="-2.4240000000000004" y="337.36" dominant-baseline="middle" text-anchor="middle">19</text><text x="-2.4240000000000004" y="355.36" dominant-baseline="middle" text-anchor="middle">20</text></g><line x1="247.0910674459006" x2="247.0910674459006" y1="0" y2="364.36" stroke="#111111" stroke-width="0.65"/></g><text x="213.54330708915" y="419.16" text-anchor="middle" font-family="Arial, sans-serif" font-size="7.8" fill="#111111">Permutation importance</text></svg>