<svg id="fig-top20-11-svg" width="11.3cm" height="18.3cm" viewBox="0 0 427.0866141783 691.6535433153" xmlns="http://www.w3.org/2000/svg"><text x="213.54330708915" y="16" text-anchor="middle" font-family="Arial, sans-serif" font-size="9" font-weight="700" fill="#111111">Permutation importances</text><g transform="translate(12,28)"><g transform="translate(154,0)"><g fill="none" font-size="10" font-family="sans-serif" text-anchor="middle"><g class="tick" opacity="1" transform="translate(13.097586804861432,0)"><line stroke="#d9d9d9" y2="364.36" stroke-width="0.55"/><text fill="currentColor" y="367.36" dy="0.71em"/></g><g class="tick" opacity="1" transform="translate(78.58552082916859,0)"><line stroke="#d9d9d9" y2="364.36" stroke-width="0.55"/><text fill="currentColor" y="367.36" dy="0.71em"/></g><g class="tick" opacity="1" transform="translate(144.0734548534757,0)"><line stroke="#d9d9d9" y2="364.36" stroke-width="0.55"/><text fill="currentColor" y="367.36" dy="0.71em"/></g><g class="tick" opacity="1" transform="translate(209.56138887778292,0)"><line stroke="#d9d9d9" y2="364.36" stroke-width="0.55"/><text fill="currentColor" y="367.36" dy="0.71em"/></g></g><g class="bar-with-dots"><rect x="78.58552082916859" y="5.4" width="141.40350650816552" height="7.2" rx="3.6" ry="3.6" fill="#bdbdbd"/><circle cx="82.78552082916859" cy="9" r="2.2" fill="#585858"/><circle cx="215.78902733733412" cy="9" r="2.2" fill="#111111"/></g><g class="bar-with-dots"><rect x="78.58552082916859" y="23.4" width="84.78079116992791" height="7.2" rx="3.6" ry="3.6" fill="#bdbdbd"/><circle cx="82.78552082916859" cy="27" r="2.2" fill="#585858"/><circle cx="159.1663119990965" cy="27" r="2.2" fill="#111111"/></g><g class="bar-with-dots"><rect x="78.58552082916859" y="41.4" width="82.71854428848187" height="7.2" rx="3.6" ry="3.6" fill="#bdbdbd"/><circle cx="82.78552082916859" cy="45" r="2.2" fill="#585858"/><circle cx="157.10406511765046" cy="45" r="2.2" fill="#111111"/></g><g class="bar-with-dots"><rect x="78.58552082916859" y="59.4" width="60.60589502082385" height="7.2" rx="3.6" ry="3.6" fill="#bdbdbd"/><circle cx="82.78552082916859" cy="63" r="2.2" fill="#585858"/><circle cx="134.99141584999245" cy="63" r="2.2" fill="#111111"/></g><g class="bar-with-dots"><rect x="78.58552082916859" y="77.4" width="47.43785127526661" height="7.2" rx="3.6" ry="3.6" fill="#bdbdbd"/><circle cx="82.78552082916859" cy="81" r="2.2" fill="#585858"/><circle cx="121.8233721044352" cy="81" r="2.2" fill="#111111"/></g><g class="bar-with-dots"><rect x="78.58552082916859" y="95.4" width="47.1342536051703" height="7.2" rx="3.6" ry="3.6" fill="#bdbdbd"/><circle cx="82.78552082916859" cy="99" r="2.2" fill="#585858"/><circle cx="121.51977443433888" cy="99" r="2.2" fill="#111111"/></g><g class="bar-with-dots"><rect x="78.58552082916859" y="113.4" width="32.27742323536222" height="7.2" rx="3.6" ry="3.6" fill="#bdbdbd"/><circle cx="82.78552082916859" cy="117" r="2.2" fill="#585858"/><circle cx="106.6629440645308" cy="117" r="2.2" fill="#111111"/></g><g class="bar-with-dots"><rect x="78.58552082916859" y="131.4" width="31.46829586557176" height="7.2" rx="3.6" ry="3.6" fill="#bdbdbd"/><circle cx="82.78552082916859" cy="135" r="2.2" fill="#585858"/><circle cx="105.85381669474035" cy="135" r="2.2" fill="#111111"/></g><g class="bar-with-dots"><rect x="78.58552082916859" y="149.4" width="29.718091738096888" height="7.2" rx="3.6" ry="3.6" fill="#bdbdbd"/><circle cx="82.78552082916859" cy="153" r="2.2" fill="#585858"/><circle cx="104.10361256726547" cy="153" r="2.2" fill="#111111"/></g><g class="bar-with-dots"><rect x="78.58552082916859" y="167.4" width="21.752889511929453" height="7.2" rx="3.6" ry="3.6" fill="#bdbdbd"/><circle cx="82.78552082916859" cy="171" r="2.2" fill="#585858"/><circle cx="96.13841034109804" cy="171" r="2.2" fill="#111111"/></g><g class="bar-with-dots"><rect x="78.58552082916859" y="185.4" width="17.397951253165544" height="7.2" rx="3.6" ry="3.6" fill="#bdbdbd"/><circle cx="82.78552082916859" cy="189" r="2.2" fill="#585858"/><circle cx="91.78347208233413" cy="189" r="2.2" fill="#111111"/></g><g class="bar-with-dots"><rect x="78.58552082916859" y="203.4" width="15.406033107846696" height="7.2" rx="3.6" ry="3.6" fill="#bdbdbd"/><circle cx="82.78552082916859" cy="207" r="2.2" fill="#585858"/><circle cx="89.79155393701528" cy="207" r="2.2" fill="#111111"/></g><g class="bar-with-dots"><rect x="78.58552082916859" y="221.4" width="14.856071867228309" height="7.2" rx="3.6" ry="3.6" fill="#bdbdbd"/><circle cx="82.78552082916859" cy="225" r="2.2" fill="#585858"/><circle cx="89.24159269639689" cy="225" r="2.2" fill="#111111"/></g><g class="bar-with-dots"><rect x="78.58552082916859" y="239.4" width="14.036810344146204" height="7.2" rx="3.6" ry="3.6" fill="#bdbdbd"/><circle cx="82.78552082916859" cy="243" r="2.2" fill="#585858"/><circle cx="88.42233117331479" cy="243" r="2.2" fill="#111111"/></g><g class="bar-with-dots"><rect x="78.58552082916859" y="259.58" width="10.006673018424948" height="7.2" rx="3.6" ry="3.6" fill="#bdbdbd"/><circle cx="82.78552082916859" cy="263.18" r="2.2" fill="#585858"/><circle cx="84.39219384759353" cy="263.18" r="2.2" fill="#111111"/></g><g class="bar-with-dots"><rect x="69.7752668198435" y="279.76" width="8.810254009325092" height="7.2" rx="3.6" ry="3.6" fill="#c9c9c9"/><circle cx="74.38552082916858" cy="283.36" r="2.2" fill="#585858"/><circle cx="73.9752668198435" cy="283.36" r="2.2" fill="#8a8a8a"/></g><g class="bar-with-dots"><rect x="78.58552082916859" y="297.76" width="7.469859471894296" height="7.2" rx="3.6" ry="3.6" fill="#bdbdbd"/><circle cx="82.32045056511573" cy="301.36" r="2.2" fill="#585858"/><circle cx="82.32045056511573" cy="301.36" r="2.2" fill="#111111"/></g><g class="bar-with-dots"><rect x="78.58552082916859" y="315.76" width="7.329254984830399" height="7.2" rx="3.6" ry="3.6" fill="#bdbdbd"/><circle cx="82.2501483215838" cy="319.36" r="2.2" fill="#585858"/><circle cx="82.2501483215838" cy="319.36" r="2.2" fill="#111111"/></g><g class="bar-with-dots"><rect x="78.58552082916859" y="333.76" width="7.27979938479686" height="7.2" rx="3.6" ry="3.6" fill="#bdbdbd"/><circle cx="82.22542052156702" cy="337.36" r="2.2" fill="#585858"/><circle cx="82.22542052156702" cy="337.36" r="2.2" fill="#111111"/></g><g class="bar-with-dots"><rect x="78.58552082916859" y="351.76" width="6.767967823490849" height="7.2" rx="3.6" ry="3.6" fill="#bdbdbd"/><circle cx="81.969504740914" cy="355.36" r="2.2" fill="#585858"/><circle cx="81.969504740914" cy="355.36" r="2.2" fill="#111111"/></g><text class="value-label" x="72.58552082916859" y="9" text-anchor="end" dominant-baseline="middle" font-family="Arial, sans-serif" font-size="6.8" font-weight="400" fill="#333333">.043</text><text class="value-label" x="72.58552082916859" y="27" text-anchor="end" dominant-baseline="middle" font-family="Arial, sans-serif" font-size="6.8" font-weight="400" fill="#333333">.026</text><text class="value-label" x="72.58552082916859" y="45" text-anchor="end" dominant-baseline="middle" font-family="Arial, sans-serif" font-size="6.8" font-weight="400" fill="#333333">.025</text><text class="value-label" x="72.58552082916859" y="63" text-anchor="end" dominant-baseline="middle" font-family="Arial, sans-serif" font-size="6.8" font-weight="400" fill="#333333">.019</text><text class="value-label" x="72.58552082916859" y="81" text-anchor="end" dominant-baseline="middle" font-family="Arial, sans-serif" font-size="6.8" font-weight="400" fill="#333333">.014</text><text class="value-label" x="72.58552082916859" y="99" text-anchor="end" dominant-baseline="middle" font-family="Arial, sans-serif" font-size="6.8" font-weight="400" fill="#333333">.014</text><text class="value-label" x="72.58552082916859" y="117" text-anchor="end" dominant-baseline="middle" font-family="Arial, sans-serif" font-size="6.8" font-weight="400" fill="#333333">.010</text><text class="value-label" x="72.58552082916859" y="135" text-anchor="end" dominant-baseline="middle" font-family="Arial, sans-serif" font-size="6.8" font-weight="400" fill="#333333">.010</text><text class="value-label" x="72.58552082916859" y="153" text-anchor="end" dominant-baseline="middle" font-family="Arial, sans-serif" font-size="6.8" font-weight="400" fill="#333333">.009</text><text class="value-label" x="72.58552082916859" y="171" text-anchor="end" dominant-baseline="middle" font-family="Arial, sans-serif" font-size="6.8" font-weight="400" fill="#333333">.007</text><text class="value-label" x="72.58552082916859" y="189" text-anchor="end" dominant-baseline="middle" font-family="Arial, sans-serif" font-size="6.8" font-weight="400" fill="#333333">.005</text><text class="value-label" x="72.58552082916859" y="207" text-anchor="end" dominant-baseline="middle" font-family="Arial, sans-serif" font-size="6.8" font-weight="400" fill="#333333">.005</text><text class="value-label" x="72.58552082916859" y="225" text-anchor="end" dominant-baseline="middle" font-family="Arial, sans-serif" font-size="6.8" font-weight="400" fill="#333333">.005</text><text class="value-label" x="72.58552082916859" y="243" text-anchor="end" dominant-baseline="middle" font-family="Arial, sans-serif" font-size="6.8" font-weight="400" fill="#333333">.004</text><text class="value-label" x="72.58552082916859" y="263.18" text-anchor="end" dominant-baseline="middle" font-family="Arial, sans-serif" font-size="6.8" font-weight="400" fill="#333333">.003</text><text class="value-label" x="84.58552082916859" y="283.36" text-anchor="start" dominant-baseline="middle" font-family="Arial, sans-serif" font-size="6.8" font-weight="400" fill="#333333">−.003</text><text class="value-label" x="72.58552082916859" y="301.36" text-anchor="end" dominant-baseline="middle" font-family="Arial, sans-serif" font-size="6.8" font-weight="400" fill="#333333">.002</text><text class="value-label" x="72.58552082916859" y="319.36" text-anchor="end" dominant-baseline="middle" font-family="Arial, sans-serif" font-size="6.8" font-weight="400" fill="#333333">.002</text><text class="value-label" x="72.58552082916859" y="337.36" text-anchor="end" dominant-baseline="middle" font-family="Arial, sans-serif" font-size="6.8" font-weight="400" fill="#333333">.002</text><text class="value-label" x="72.58552082916859" y="355.36" text-anchor="end" dominant-baseline="middle" font-family="Arial, sans-serif" font-size="6.8" font-weight="400" fill="#333333">.002</text><g transform="translate(0,364.36)" fill="none" font-size="10" font-family="sans-serif" text-anchor="middle"><path class="domain" stroke="#111111" d="M0,0H233.0866141783" stroke-width="0.75"/><g class="tick" opacity="1" transform="translate(13.097586804861432,0)"><line stroke="#111111" y2="4.5" stroke-width="0.55"/><text fill="#111111" y="9" dy="0.15em" font-family="Arial, sans-serif" font-size="7" font-weight="400">−.02</text></g><g class="tick" opacity="1" transform="translate(78.58552082916859,0)"><line stroke="#111111" y2="4.5" stroke-width="0.55"/><text fill="#111111" y="9" dy="0.15em" font-family="Arial, sans-serif" font-size="7" font-weight="400">0</text></g><g class="tick" opacity="1" transform="translate(144.0734548534757,0)"><line stroke="#111111" y2="4.5" stroke-width="0.55"/><text fill="#111111" y="9" dy="0.15em" font-family="Arial, sans-serif" font-size="7" font-weight="400">.02</text></g><g class="tick" opacity="1" transform="translate(209.56138887778292,0)"><line stroke="#111111" y2="4.5" stroke-width="0.55"/><text fill="#111111" y="9" dy="0.15em" font-family="Arial, sans-serif" font-size="7" font-weight="400">.04</text></g></g><g transform="translate(0,364.36)"><line class="minor-tick" x1="45.841553817015004" x2="45.841553817015004" y1="0" y2="3" stroke="#111111" stroke-width="0.55"/><line class="minor-tick" x1="111.32948784132218" x2="111.32948784132218" y1="0" y2="3" stroke="#111111" stroke-width="0.55"/><line class="minor-tick" x1="176.8174218656293" x2="176.8174218656293" y1="0" y2="3" stroke="#111111" stroke-width="0.55"/></g></g><line class="row-separator" x1="0" x2="387.0866141783" y1="18" y2="18" stroke="#ebebeb" stroke-width="0.4675"/><line class="row-separator" x1="0" x2="387.0866141783" y1="36" y2="36" stroke="#ebebeb" stroke-width="0.4675"/><line class="row-separator" x1="0" x2="387.0866141783" y1="54" y2="54" stroke="#ebebeb" stroke-width="0.4675"/><line class="row-separator" x1="0" x2="387.0866141783" y1="72" y2="72" stroke="#ebebeb" stroke-width="0.4675"/><line class="row-separator" x1="0" x2="387.0866141783" y1="90" y2="90" stroke="#ebebeb" stroke-width="0.4675"/><line class="row-separator" x1="0" x2="387.0866141783" y1="108" y2="108" stroke="#ebebeb" stroke-width="0.4675"/><line class="row-separator" x1="0" x2="387.0866141783" y1="126" y2="126" stroke="#ebebeb" stroke-width="0.4675"/><line class="row-separator" x1="0" x2="387.0866141783" y1="144" y2="144" stroke="#ebebeb" stroke-width="0.4675"/><line class="row-separator" x1="0" x2="387.0866141783" y1="162" y2="162" stroke="#ebebeb" stroke-width="0.4675"/><line class="row-separator" x1="0" x2="387.0866141783" y1="180" y2="180" stroke="#ebebeb" stroke-width="0.4675"/><line class="row-separator" x1="0" x2="387.0866141783" y1="198" y2="198" stroke="#ebebeb" stroke-width="0.4675"/><line class="row-separator" x1="0" x2="387.0866141783" y1="216" y2="216" stroke="#ebebeb" stroke-width="0.4675"/><line class="row-separator" x1="0" x2="387.0866141783" y1="234" y2="234" stroke="#ebebeb" stroke-width="0.4675"/><line class="row-separator" x1="0" x2="387.0866141783" y1="252" y2="252" stroke="#ebebeb" stroke-width="0.4675"/><line class="row-separator" x1="0" x2="387.0866141783" y1="274.36" y2="274.36" stroke="#ebebeb" stroke-width="0.4675"/><line class="row-separator" x1="0" x2="387.0866141783" y1="292.36" y2="292.36" stroke="#ebebeb" stroke-width="0.4675"/><line class="row-separator" x1="0" x2="387.0866141783" y1="310.36" y2="310.36" stroke="#ebebeb" stroke-width="0.4675"/><line class="row-separator" x1="0" x2="387.0866141783" y1="328.36" y2="328.36" stroke="#ebebeb" stroke-width="0.4675"/><line class="row-separator" x1="0" x2="387.0866141783" y1="346.36" y2="346.36" stroke="#ebebeb" stroke-width="0.4675"/><g fill="#111111" font-family="Arial, sans-serif" font-size="7"><text x="153" y="11" text-anchor="end"><tspan x="153" dy="0">Seite/Dimension</tspan></text><text x="153" y="29" text-anchor="end"><tspan x="153" dy="0">U.S. Const. amend. XIV</tspan></text><text x="153" y="47" text-anchor="end"><tspan x="153" dy="0">Recht auf Sicherheit</tspan></text><text x="153" y="65" text-anchor="end"><tspan x="153" dy="0">Freedom of Association</tspan></text><text x="153" y="83" text-anchor="end"><tspan x="153" dy="0">Souveränität &amp; Unabhängigkeit</tspan></text><text x="153" y="101" text-anchor="end"><tspan x="153" dy="0">General Welfare</tspan></text><text x="153" y="119" text-anchor="end"><tspan x="153" dy="0">Due Process Clause</tspan></text><text x="153" y="137" text-anchor="end"><tspan x="153" dy="0">Right to Privacy</tspan></text><text x="153" y="155" text-anchor="end"><tspan x="153" dy="0">Right to Life</tspan></text><text x="153" y="173" text-anchor="end"><tspan x="153" dy="0">Doctrine of Equality</tspan></text><text x="153" y="191" text-anchor="end"><tspan x="153" dy="0">U.S. Const. amend. V</tspan></text><text x="153" y="209" text-anchor="end"><tspan x="153" dy="0">Equal Protection Clause</tspan></text><text x="153" y="227" text-anchor="end"><tspan x="153" dy="0">Police Power</tspan></text><text x="153" y="245" text-anchor="end"><tspan x="153" dy="0">Vertragsfreiheit</tspan></text><text x="153" y="265.18" text-anchor="end"><tspan x="153" dy="-4.0249999999999995">U.S. Const. amend. IV &amp;</tspan><tspan x="153" dy="8.049999999999999">unreasonable searches &amp; seizures</tspan></text><text x="153" y="285.36" text-anchor="end"><tspan x="153" dy="0">Berufsfreiheit</tspan></text><text x="153" y="303.36" text-anchor="end"><tspan x="153" dy="0">Good government</tspan></text><text x="153" y="321.36" text-anchor="end"><tspan x="153" dy="0">Right to Property</tspan></text><text x="153" y="339.36" text-anchor="end"><tspan x="153" dy="0">inalienable rights</tspan></text><text x="153" y="357.36" text-anchor="end"><tspan x="153" dy="0">Recht auf Widerstand</tspan></text></g><text x="-2.4240000000000004" y="-5" text-anchor="middle" font-family="Arial, sans-serif" font-size="5.44" font-weight="700" fill="#111111">Ra.</text><g><circle cx="-2.4240000000000004" cy="9" r="5.576" fill="#e8e8e8" stroke="#d6d6d6" stroke-width="0.7"/><circle cx="-2.4240000000000004" cy="27" r="5.576" fill="#e8e8e8" stroke="#d6d6d6" stroke-width="0.7"/><circle cx="-2.4240000000000004" cy="45" r="5.576" fill="#e8e8e8" stroke="#d6d6d6" stroke-width="0.7"/><circle cx="-2.4240000000000004" cy="63" r="5.576" fill="#e8e8e8" stroke="#d6d6d6" stroke-width="0.7"/><circle cx="-2.4240000000000004" cy="81" r="5.576" fill="#e8e8e8" stroke="#d6d6d6" stroke-width="0.7"/><circle cx="-2.4240000000000004" cy="99" r="5.576" fill="#e8e8e8" stroke="#d6d6d6" stroke-width="0.7"/><circle cx="-2.4240000000000004" cy="117" r="5.576" fill="#e8e8e8" stroke="#d6d6d6" stroke-width="0.7"/><circle cx="-2.4240000000000004" cy="135" r="5.576" fill="#e8e8e8" stroke="#d6d6d6" stroke-width="0.7"/><circle cx="-2.4240000000000004" cy="153" r="5.576" fill="#e8e8e8" stroke="#d6d6d6" stroke-width="0.7"/><circle cx="-2.4240000000000004" cy="171" r="5.576" fill="#e8e8e8" stroke="#d6d6d6" stroke-width="0.7"/><circle cx="-2.4240000000000004" cy="189" r="5.576" fill="#e8e8e8" stroke="#d6d6d6" stroke-width="0.7"/><circle cx="-2.4240000000000004" cy="207" r="5.576" fill="#e8e8e8" stroke="#d6d6d6" stroke-width="0.7"/><circle cx="-2.4240000000000004" cy="225" r="5.576" fill="#e8e8e8" stroke="#d6d6d6" stroke-width="0.7"/><circle cx="-2.4240000000000004" cy="243" r="5.576" fill="#e8e8e8" stroke="#d6d6d6" stroke-width="0.7"/><circle cx="-2.4240000000000004" cy="263.18" r="5.576" fill="#e8e8e8" stroke="#d6d6d6" stroke-width="0.7"/><circle cx="-2.4240000000000004" cy="283.36" r="5.576" fill="#e8e8e8" stroke="#d6d6d6" stroke-width="0.7"/><circle cx="-2.4240000000000004" cy="301.36" r="5.576" fill="#e8e8e8" stroke="#d6d6d6" stroke-width="0.7"/><circle cx="-2.4240000000000004" cy="319.36" r="5.576" fill="#e8e8e8" stroke="#d6d6d6" stroke-width="0.7"/><circle cx="-2.4240000000000004" cy="337.36" r="5.576" fill="#e8e8e8" stroke="#d6d6d6" stroke-width="0.7"/><circle cx="-2.4240000000000004" cy="355.36" r="5.576" fill="#e8e8e8" stroke="#d6d6d6" stroke-width="0.7"/></g><g font-family="Arial, sans-serif" font-size="5.984" fill="#111111"><text x="-2.4240000000000004" y="9" dominant-baseline="middle" text-anchor="middle">1</text><text x="-2.4240000000000004" y="27" dominant-baseline="middle" text-anchor="middle">2</text><text x="-2.4240000000000004" y="45" dominant-baseline="middle" text-anchor="middle">3</text><text x="-2.4240000000000004" y="63" dominant-baseline="middle" text-anchor="middle">4</text><text x="-2.4240000000000004" y="81" dominant-baseline="middle" text-anchor="middle">5</text><text x="-2.4240000000000004" y="99" dominant-baseline="middle" text-anchor="middle">6</text><text x="-2.4240000000000004" y="117" dominant-baseline="middle" text-anchor="middle">7</text><text x="-2.4240000000000004" y="135" dominant-baseline="middle" text-anchor="middle">8</text><text x="-2.4240000000000004" y="153" dominant-baseline="middle" text-anchor="middle">9</text><text x="-2.4240000000000004" y="171" dominant-baseline="middle" text-anchor="middle">10</text><text x="-2.4240000000000004" y="189" dominant-baseline="middle" text-anchor="middle">11</text><text x="-2.4240000000000004" y="207" dominant-baseline="middle" text-anchor="middle">12</text><text x="-2.4240000000000004" y="225" dominant-baseline="middle" text-anchor="middle">13</text><text x="-2.4240000000000004" y="243" dominant-baseline="middle" text-anchor="middle">14</text><text x="-2.4240000000000004" y="263.18" dominant-baseline="middle" text-anchor="middle">15</text><text x="-2.4240000000000004" y="283.36" dominant-baseline="middle" text-anchor="middle">16</text><text x="-2.4240000000000004" y="301.36" dominant-baseline="middle" text-anchor="middle">17</text><text x="-2.4240000000000004" y="319.36" dominant-baseline="middle" text-anchor="middle">18</text><text x="-2.4240000000000004" y="337.36" dominant-baseline="middle" text-anchor="middle">19</text><text x="-2.4240000000000004" y="355.36" dominant-baseline="middle" text-anchor="middle">20</text></g><line x1="232.5855208291686" x2="232.5855208291686" y1="0" y2="364.36" stroke="#111111" stroke-width="0.65"/></g><text x="213.54330708915" y="419.16" text-anchor="middle" font-family="Arial, sans-serif" font-size="7.8" fill="#111111">Permutation importance</text></svg>