<svg id="fig-top20-22-svg" width="11.3cm" height="18.3cm" viewBox="0 0 427.0866141783 691.6535433153" xmlns="http://www.w3.org/2000/svg"><text x="213.54330708915" y="16" text-anchor="middle" font-family="Arial, sans-serif" font-size="9" font-weight="700" fill="#111111">Permutation importances</text><g transform="translate(12,28)"><g transform="translate(154,0)"><g fill="none" font-size="10" font-family="sans-serif" text-anchor="middle"><g class="tick" opacity="1" transform="translate(11.890863816544442,0)"><line stroke="#d9d9d9" y2="360" stroke-width="0.55"/><text fill="currentColor" y="363" dy="0.71em"/></g><g class="tick" opacity="1" transform="translate(71.34518289926665,0)"><line stroke="#d9d9d9" y2="360" stroke-width="0.55"/><text fill="currentColor" y="363" dy="0.71em"/></g><g class="tick" opacity="1" transform="translate(130.79950198198884,0)"><line stroke="#d9d9d9" y2="360" stroke-width="0.55"/><text fill="currentColor" y="363" dy="0.71em"/></g><g class="tick" opacity="1" transform="translate(190.25382106471108,0)"><line stroke="#d9d9d9" y2="360" stroke-width="0.55"/><text fill="currentColor" y="363" dy="0.71em"/></g></g><g class="bar-with-dots"><rect x="71.34518289926665" y="5.4" width="149.8505674082141" height="7.2" rx="3.6" ry="3.6" fill="#bdbdbd"/><circle cx="75.54518289926665" cy="9" r="2.2" fill="#585858"/><circle cx="216.99575030748076" cy="9" r="2.2" fill="#111111"/></g><g class="bar-with-dots"><rect x="71.34518289926665" y="23.4" width="108.72045741796715" height="7.2" rx="3.6" ry="3.6" fill="#bdbdbd"/><circle cx="75.54518289926665" cy="27" r="2.2" fill="#585858"/><circle cx="175.8656403172338" cy="27" r="2.2" fill="#111111"/></g><g class="bar-with-dots"><rect x="71.34518289926665" y="41.4" width="73.85607709058537" height="7.2" rx="3.6" ry="3.6" fill="#bdbdbd"/><circle cx="75.54518289926665" cy="45" r="2.2" fill="#585858"/><circle cx="141.00125998985203" cy="45" r="2.2" fill="#111111"/></g><g class="bar-with-dots"><rect x="71.34518289926665" y="59.4" width="66.44522231269941" height="7.2" rx="3.6" ry="3.6" fill="#bdbdbd"/><circle cx="75.54518289926665" cy="63" r="2.2" fill="#585858"/><circle cx="133.59040521196607" cy="63" r="2.2" fill="#111111"/></g><g class="bar-with-dots"><rect x="71.34518289926665" y="77.4" width="41.563030272926426" height="7.2" rx="3.6" ry="3.6" fill="#bdbdbd"/><circle cx="75.54518289926665" cy="81" r="2.2" fill="#585858"/><circle cx="108.70821317219307" cy="81" r="2.2" fill="#111111"/></g><g class="bar-with-dots"><rect x="71.34518289926665" y="95.4" width="30.654574417449325" height="7.2" rx="3.6" ry="3.6" fill="#bdbdbd"/><circle cx="75.54518289926665" cy="99" r="2.2" fill="#585858"/><circle cx="97.79975731671597" cy="99" r="2.2" fill="#111111"/></g><g class="bar-with-dots"><rect x="71.34518289926665" y="113.4" width="30.52403501738472" height="7.2" rx="3.6" ry="3.6" fill="#bdbdbd"/><circle cx="75.54518289926665" cy="117" r="2.2" fill="#585858"/><circle cx="97.66921791665136" cy="117" r="2.2" fill="#111111"/></g><g class="bar-with-dots"><rect x="71.34518289926665" y="131.4" width="24.49654659998066" height="7.2" rx="3.6" ry="3.6" fill="#bdbdbd"/><circle cx="75.54518289926665" cy="135" r="2.2" fill="#585858"/><circle cx="91.6417294992473" cy="135" r="2.2" fill="#111111"/></g><g class="bar-with-dots"><rect x="46.95890261845005" y="149.4" width="24.3862802808166" height="7.2" rx="3.6" ry="3.6" fill="#c9c9c9"/><circle cx="67.14518289926664" cy="153" r="2.2" fill="#585858"/><circle cx="51.15890261845005" cy="153" r="2.2" fill="#8a8a8a"/></g><g class="bar-with-dots"><rect x="71.34518289926665" y="167.4" width="20.188828047075546" height="7.2" rx="3.6" ry="3.6" fill="#bdbdbd"/><circle cx="75.54518289926665" cy="171" r="2.2" fill="#585858"/><circle cx="87.33401094634219" cy="171" r="2.2" fill="#111111"/></g><g class="bar-with-dots"><rect x="71.34518289926665" y="185.4" width="17.576201473224742" height="7.2" rx="3.6" ry="3.6" fill="#bdbdbd"/><circle cx="75.54518289926665" cy="189" r="2.2" fill="#585858"/><circle cx="84.72138437249139" cy="189" r="2.2" fill="#111111"/></g><g class="bar-with-dots"><rect x="71.34518289926665" y="203.4" width="16.897185755161075" height="7.2" rx="3.6" ry="3.6" fill="#bdbdbd"/><circle cx="75.54518289926665" cy="207" r="2.2" fill="#585858"/><circle cx="84.04236865442772" cy="207" r="2.2" fill="#111111"/></g><g class="bar-with-dots"><rect x="71.34518289926665" y="221.4" width="16.26661874406848" height="7.2" rx="3.6" ry="3.6" fill="#bdbdbd"/><circle cx="75.54518289926665" cy="225" r="2.2" fill="#585858"/><circle cx="83.41180164333512" cy="225" r="2.2" fill="#111111"/></g><g class="bar-with-dots"><rect x="71.34518289926665" y="239.4" width="15.113272717388682" height="7.2" rx="3.6" ry="3.6" fill="#bdbdbd"/><circle cx="75.54518289926665" cy="243" r="2.2" fill="#585858"/><circle cx="82.25845561665533" cy="243" r="2.2" fill="#111111"/></g><g class="bar-with-dots"><rect x="71.34518289926665" y="257.4" width="14.07860768769639" height="7.2" rx="3.6" ry="3.6" fill="#bdbdbd"/><circle cx="75.54518289926665" cy="261" r="2.2" fill="#585858"/><circle cx="81.22379058696303" cy="261" r="2.2" fill="#111111"/></g><g class="bar-with-dots"><rect x="71.34518289926665" y="275.4" width="13.867957940369308" height="7.2" rx="3.6" ry="3.6" fill="#bdbdbd"/><circle cx="75.54518289926665" cy="279" r="2.2" fill="#585858"/><circle cx="81.01314083963595" cy="279" r="2.2" fill="#111111"/></g><g class="bar-with-dots"><rect x="58.76412801938921" y="293.4" width="12.581054879877435" height="7.2" rx="3.6" ry="3.6" fill="#c9c9c9"/><circle cx="67.14518289926664" cy="297" r="2.2" fill="#585858"/><circle cx="62.964128019389214" cy="297" r="2.2" fill="#8a8a8a"/></g><g class="bar-with-dots"><rect x="71.34518289926665" y="311.4" width="10.827628556395524" height="7.2" rx="3.6" ry="3.6" fill="#bdbdbd"/><circle cx="75.54518289926665" cy="315" r="2.2" fill="#585858"/><circle cx="77.97281145566217" cy="315" r="2.2" fill="#111111"/></g><g class="bar-with-dots"><rect x="71.34518289926665" y="329.4" width="10.386653554911405" height="7.2" rx="3.6" ry="3.6" fill="#bdbdbd"/><circle cx="75.54518289926665" cy="333" r="2.2" fill="#585858"/><circle cx="77.53183645417805" cy="333" r="2.2" fill="#111111"/></g><g class="bar-with-dots"><rect x="71.34518289926665" y="347.4" width="9.397750219823877" height="7.2" rx="3.6" ry="3.6" fill="#bdbdbd"/><circle cx="75.54518289926665" cy="351" r="2.2" fill="#585858"/><circle cx="76.54293311909052" cy="351" r="2.2" fill="#111111"/></g><text class="value-label" x="65.34518289926665" y="9" text-anchor="end" dominant-baseline="middle" font-family="Arial, sans-serif" font-size="6.8" font-weight="400" fill="#333333">.050</text><text class="value-label" x="65.34518289926665" y="27" text-anchor="end" dominant-baseline="middle" font-family="Arial, sans-serif" font-size="6.8" font-weight="400" fill="#333333">.037</text><text class="value-label" x="65.34518289926665" y="45" text-anchor="end" dominant-baseline="middle" font-family="Arial, sans-serif" font-size="6.8" font-weight="400" fill="#333333">.025</text><text class="value-label" x="65.34518289926665" y="63" text-anchor="end" dominant-baseline="middle" font-family="Arial, sans-serif" font-size="6.8" font-weight="400" fill="#333333">.022</text><text class="value-label" x="65.34518289926665" y="81" text-anchor="end" dominant-baseline="middle" font-family="Arial, sans-serif" font-size="6.8" font-weight="400" fill="#333333">.014</text><text class="value-label" x="65.34518289926665" y="99" text-anchor="end" dominant-baseline="middle" font-family="Arial, sans-serif" font-size="6.8" font-weight="400" fill="#333333">.010</text><text class="value-label" x="65.34518289926665" y="117" text-anchor="end" dominant-baseline="middle" font-family="Arial, sans-serif" font-size="6.8" font-weight="400" fill="#333333">.010</text><text class="value-label" x="65.34518289926665" y="135" text-anchor="end" dominant-baseline="middle" font-family="Arial, sans-serif" font-size="6.8" font-weight="400" fill="#333333">.008</text><text class="value-label" x="77.34518289926665" y="153" text-anchor="start" dominant-baseline="middle" font-family="Arial, sans-serif" font-size="6.8" font-weight="400" fill="#333333">−.008</text><text class="value-label" x="65.34518289926665" y="171" text-anchor="end" dominant-baseline="middle" font-family="Arial, sans-serif" font-size="6.8" font-weight="400" fill="#333333">.007</text><text class="value-label" x="65.34518289926665" y="189" text-anchor="end" dominant-baseline="middle" font-family="Arial, sans-serif" font-size="6.8" font-weight="400" fill="#333333">.006</text><text class="value-label" x="65.34518289926665" y="207" text-anchor="end" dominant-baseline="middle" font-family="Arial, sans-serif" font-size="6.8" font-weight="400" fill="#333333">.006</text><text class="value-label" x="65.34518289926665" y="225" text-anchor="end" dominant-baseline="middle" font-family="Arial, sans-serif" font-size="6.8" font-weight="400" fill="#333333">.005</text><text class="value-label" x="65.34518289926665" y="243" text-anchor="end" dominant-baseline="middle" font-family="Arial, sans-serif" font-size="6.8" font-weight="400" fill="#333333">.005</text><text class="value-label" x="65.34518289926665" y="261" text-anchor="end" dominant-baseline="middle" font-family="Arial, sans-serif" font-size="6.8" font-weight="400" fill="#333333">.005</text><text class="value-label" x="65.34518289926665" y="279" text-anchor="end" dominant-baseline="middle" font-family="Arial, sans-serif" font-size="6.8" font-weight="400" fill="#333333">.005</text><text class="value-label" x="77.34518289926665" y="297" text-anchor="start" dominant-baseline="middle" font-family="Arial, sans-serif" font-size="6.8" font-weight="400" fill="#333333">−.004</text><text class="value-label" x="65.34518289926665" y="315" text-anchor="end" dominant-baseline="middle" font-family="Arial, sans-serif" font-size="6.8" font-weight="400" fill="#333333">.004</text><text class="value-label" x="65.34518289926665" y="333" text-anchor="end" dominant-baseline="middle" font-family="Arial, sans-serif" font-size="6.8" font-weight="400" fill="#333333">.003</text><text class="value-label" x="65.34518289926665" y="351" text-anchor="end" dominant-baseline="middle" font-family="Arial, sans-serif" font-size="6.8" font-weight="400" fill="#333333">.003</text><g transform="translate(0,360)" fill="none" font-size="10" font-family="sans-serif" text-anchor="middle"><path class="domain" stroke="#111111" d="M0,0H233.0866141783" stroke-width="0.75"/><g class="tick" opacity="1" transform="translate(11.890863816544442,0)"><line stroke="#111111" y2="4.5" stroke-width="0.55"/><text fill="#111111" y="9" dy="0.15em" font-family="Arial, sans-serif" font-size="7" font-weight="400">−.02</text></g><g class="tick" opacity="1" transform="translate(71.34518289926665,0)"><line stroke="#111111" y2="4.5" stroke-width="0.55"/><text fill="#111111" y="9" dy="0.15em" font-family="Arial, sans-serif" font-size="7" font-weight="400">0</text></g><g class="tick" opacity="1" transform="translate(130.79950198198884,0)"><line stroke="#111111" y2="4.5" stroke-width="0.55"/><text fill="#111111" y="9" dy="0.15em" font-family="Arial, sans-serif" font-size="7" font-weight="400">.02</text></g><g class="tick" opacity="1" transform="translate(190.25382106471108,0)"><line stroke="#111111" y2="4.5" stroke-width="0.55"/><text fill="#111111" y="9" dy="0.15em" font-family="Arial, sans-serif" font-size="7" font-weight="400">.04</text></g></g><g transform="translate(0,360)"><line class="minor-tick" x1="41.61802335790555" x2="41.61802335790555" y1="0" y2="3" stroke="#111111" stroke-width="0.55"/><line class="minor-tick" x1="101.07234244062775" x2="101.07234244062775" y1="0" y2="3" stroke="#111111" stroke-width="0.55"/><line class="minor-tick" x1="160.52666152334996" x2="160.52666152334996" y1="0" y2="3" stroke="#111111" stroke-width="0.55"/></g></g><line class="row-separator" x1="0" x2="387.0866141783" y1="18" y2="18" stroke="#ebebeb" stroke-width="0.4675"/><line class="row-separator" x1="0" x2="387.0866141783" y1="36" y2="36" stroke="#ebebeb" stroke-width="0.4675"/><line class="row-separator" x1="0" x2="387.0866141783" y1="54" y2="54" stroke="#ebebeb" stroke-width="0.4675"/><line class="row-separator" x1="0" x2="387.0866141783" y1="72" y2="72" stroke="#ebebeb" stroke-width="0.4675"/><line class="row-separator" x1="0" x2="387.0866141783" y1="90" y2="90" stroke="#ebebeb" stroke-width="0.4675"/><line class="row-separator" x1="0" x2="387.0866141783" y1="108" y2="108" stroke="#ebebeb" stroke-width="0.4675"/><line class="row-separator" x1="0" x2="387.0866141783" y1="126" y2="126" stroke="#ebebeb" stroke-width="0.4675"/><line class="row-separator" x1="0" x2="387.0866141783" y1="144" y2="144" stroke="#ebebeb" stroke-width="0.4675"/><line class="row-separator" x1="0" x2="387.0866141783" y1="162" y2="162" stroke="#ebebeb" stroke-width="0.4675"/><line class="row-separator" x1="0" x2="387.0866141783" y1="180" y2="180" stroke="#ebebeb" stroke-width="0.4675"/><line class="row-separator" x1="0" x2="387.0866141783" y1="198" y2="198" stroke="#ebebeb" stroke-width="0.4675"/><line class="row-separator" x1="0" x2="387.0866141783" y1="216" y2="216" stroke="#ebebeb" stroke-width="0.4675"/><line class="row-separator" x1="0" x2="387.0866141783" y1="234" y2="234" stroke="#ebebeb" stroke-width="0.4675"/><line class="row-separator" x1="0" x2="387.0866141783" y1="252" y2="252" stroke="#ebebeb" stroke-width="0.4675"/><line class="row-separator" x1="0" x2="387.0866141783" y1="270" y2="270" stroke="#ebebeb" stroke-width="0.4675"/><line class="row-separator" x1="0" x2="387.0866141783" y1="288" y2="288" stroke="#ebebeb" stroke-width="0.4675"/><line class="row-separator" x1="0" x2="387.0866141783" y1="306" y2="306" stroke="#ebebeb" stroke-width="0.4675"/><line class="row-separator" x1="0" x2="387.0866141783" y1="324" y2="324" stroke="#ebebeb" stroke-width="0.4675"/><line class="row-separator" x1="0" x2="387.0866141783" y1="342" y2="342" stroke="#ebebeb" stroke-width="0.4675"/><g fill="#111111" font-family="Arial, sans-serif" font-size="7"><text x="153" y="11" text-anchor="end"><tspan x="153" dy="0">Seite/Dimension</tspan></text><text x="153" y="29" text-anchor="end"><tspan x="153" dy="0">Recht auf Sicherheit</tspan></text><text x="153" y="47" text-anchor="end"><tspan x="153" dy="0">Freedom of Association</tspan></text><text x="153" y="65" text-anchor="end"><tspan x="153" dy="0">Souveränität &amp; Unabhängigkeit</tspan></text><text x="153" y="83" text-anchor="end"><tspan x="153" dy="0">General Welfare</tspan></text><text x="153" y="101" text-anchor="end"><tspan x="153" dy="0">Citizenship</tspan></text><text x="153" y="119" text-anchor="end"><tspan x="153" dy="0">Teil des Urteils</tspan></text><text x="153" y="137" text-anchor="end"><tspan x="153" dy="0">inalienable rights</tspan></text><text x="153" y="155" text-anchor="end"><tspan x="153" dy="0">Right to Property</tspan></text><text x="153" y="173" text-anchor="end"><tspan x="153" dy="0">Berufsfreiheit</tspan></text><text x="153" y="191" text-anchor="end"><tspan x="153" dy="0">U.S. Const. amend. XIV</tspan></text><text x="153" y="209" text-anchor="end"><tspan x="153" dy="0">Public Good</tspan></text><text x="153" y="227" text-anchor="end"><tspan x="153" dy="0">Doctrine of Equality</tspan></text><text x="153" y="245" text-anchor="end"><tspan x="153" dy="0">Right to Life</tspan></text><text x="153" y="263" text-anchor="end"><tspan x="153" dy="0">Due Process Clause</tspan></text><text x="153" y="281" text-anchor="end"><tspan x="153" dy="0">Right to Privacy</tspan></text><text x="153" y="299" text-anchor="end"><tspan x="153" dy="0">Right to Liberty</tspan></text><text x="153" y="317" text-anchor="end"><tspan x="153" dy="0">Police Power</tspan></text><text x="153" y="335" text-anchor="end"><tspan x="153" dy="0">U.S. Const. amend. V</tspan></text><text x="153" y="353" text-anchor="end"><tspan x="153" dy="0">Good government</tspan></text></g><text x="-2.4240000000000004" y="-5" text-anchor="middle" font-family="Arial, sans-serif" font-size="5.44" font-weight="700" fill="#111111">Ra.</text><g><circle cx="-2.4240000000000004" cy="9" r="5.576" fill="#e8e8e8" stroke="#d6d6d6" stroke-width="0.7"/><circle cx="-2.4240000000000004" cy="27" r="5.576" fill="#e8e8e8" stroke="#d6d6d6" stroke-width="0.7"/><circle cx="-2.4240000000000004" cy="45" r="5.576" fill="#e8e8e8" stroke="#d6d6d6" stroke-width="0.7"/><circle cx="-2.4240000000000004" cy="63" r="5.576" fill="#e8e8e8" stroke="#d6d6d6" stroke-width="0.7"/><circle cx="-2.4240000000000004" cy="81" r="5.576" fill="#e8e8e8" stroke="#d6d6d6" stroke-width="0.7"/><circle cx="-2.4240000000000004" cy="99" r="5.576" fill="#e8e8e8" stroke="#d6d6d6" stroke-width="0.7"/><circle cx="-2.4240000000000004" cy="117" r="5.576" fill="#e8e8e8" stroke="#d6d6d6" stroke-width="0.7"/><circle cx="-2.4240000000000004" cy="135" r="5.576" fill="#e8e8e8" stroke="#d6d6d6" stroke-width="0.7"/><circle cx="-2.4240000000000004" cy="153" r="5.576" fill="#e8e8e8" stroke="#d6d6d6" stroke-width="0.7"/><circle cx="-2.4240000000000004" cy="171" r="5.576" fill="#e8e8e8" stroke="#d6d6d6" stroke-width="0.7"/><circle cx="-2.4240000000000004" cy="189" r="5.576" fill="#e8e8e8" stroke="#d6d6d6" stroke-width="0.7"/><circle cx="-2.4240000000000004" cy="207" r="5.576" fill="#e8e8e8" stroke="#d6d6d6" stroke-width="0.7"/><circle cx="-2.4240000000000004" cy="225" r="5.576" fill="#e8e8e8" stroke="#d6d6d6" stroke-width="0.7"/><circle cx="-2.4240000000000004" cy="243" r="5.576" fill="#e8e8e8" stroke="#d6d6d6" stroke-width="0.7"/><circle cx="-2.4240000000000004" cy="261" r="5.576" fill="#e8e8e8" stroke="#d6d6d6" stroke-width="0.7"/><circle cx="-2.4240000000000004" cy="279" r="5.576" fill="#e8e8e8" stroke="#d6d6d6" stroke-width="0.7"/><circle cx="-2.4240000000000004" cy="297" r="5.576" fill="#e8e8e8" stroke="#d6d6d6" stroke-width="0.7"/><circle cx="-2.4240000000000004" cy="315" r="5.576" fill="#e8e8e8" stroke="#d6d6d6" stroke-width="0.7"/><circle cx="-2.4240000000000004" cy="333" r="5.576" fill="#e8e8e8" stroke="#d6d6d6" stroke-width="0.7"/><circle cx="-2.4240000000000004" cy="351" r="5.576" fill="#e8e8e8" stroke="#d6d6d6" stroke-width="0.7"/></g><g font-family="Arial, sans-serif" font-size="5.984" fill="#111111"><text x="-2.4240000000000004" y="9" dominant-baseline="middle" text-anchor="middle">1</text><text x="-2.4240000000000004" y="27" dominant-baseline="middle" text-anchor="middle">2</text><text x="-2.4240000000000004" y="45" dominant-baseline="middle" text-anchor="middle">3</text><text x="-2.4240000000000004" y="63" dominant-baseline="middle" text-anchor="middle">4</text><text x="-2.4240000000000004" y="81" dominant-baseline="middle" text-anchor="middle">5</text><text x="-2.4240000000000004" y="99" dominant-baseline="middle" text-anchor="middle">6</text><text x="-2.4240000000000004" y="117" dominant-baseline="middle" text-anchor="middle">7</text><text x="-2.4240000000000004" y="135" dominant-baseline="middle" text-anchor="middle">8</text><text x="-2.4240000000000004" y="153" dominant-baseline="middle" text-anchor="middle">9</text><text x="-2.4240000000000004" y="171" dominant-baseline="middle" text-anchor="middle">10</text><text x="-2.4240000000000004" y="189" dominant-baseline="middle" text-anchor="middle">11</text><text x="-2.4240000000000004" y="207" dominant-baseline="middle" text-anchor="middle">12</text><text x="-2.4240000000000004" y="225" dominant-baseline="middle" text-anchor="middle">13</text><text x="-2.4240000000000004" y="243" dominant-baseline="middle" text-anchor="middle">14</text><text x="-2.4240000000000004" y="261" dominant-baseline="middle" text-anchor="middle">15</text><text x="-2.4240000000000004" y="279" dominant-baseline="middle" text-anchor="middle">16</text><text x="-2.4240000000000004" y="297" dominant-baseline="middle" text-anchor="middle">17</text><text x="-2.4240000000000004" y="315" dominant-baseline="middle" text-anchor="middle">18</text><text x="-2.4240000000000004" y="333" dominant-baseline="middle" text-anchor="middle">19</text><text x="-2.4240000000000004" y="351" dominant-baseline="middle" text-anchor="middle">20</text></g><line x1="225.34518289926666" x2="225.34518289926666" y1="0" y2="360" stroke="#111111" stroke-width="0.65"/></g><text x="213.54330708915" y="414.8" text-anchor="middle" font-family="Arial, sans-serif" font-size="7.8" fill="#111111">Permutation importance</text></svg>