<svg id="fig-top20-7-svg" width="11.3cm" height="18.3cm" viewBox="0 0 427.0866141783 691.6535433153" xmlns="http://www.w3.org/2000/svg"><text x="213.54330708915" y="16" text-anchor="middle" font-family="Arial, sans-serif" font-size="9" font-weight="700" fill="#111111">Permutation importances</text><g transform="translate(12,28)"><g transform="translate(154,0)"><g fill="none" font-size="10" font-family="sans-serif" text-anchor="middle"><g class="tick" opacity="1" transform="translate(16.646608114398404,0)"><line stroke="#d9d9d9" y2="360" stroke-width="0.55"/><text fill="currentColor" y="363" dy="0.71em"/></g><g class="tick" opacity="1" transform="translate(99.87964868639044,0)"><line stroke="#d9d9d9" y2="360" stroke-width="0.55"/><text fill="currentColor" y="363" dy="0.71em"/></g><g class="tick" opacity="1" transform="translate(183.11268925838246,0)"><line stroke="#d9d9d9" y2="360" stroke-width="0.55"/><text fill="currentColor" y="363" dy="0.71em"/></g></g><g class="bar-with-dots"><rect x="99.87964868639044" y="5.4" width="116.56035717138037" height="7.2" rx="3.6" ry="3.6" fill="#bdbdbd"/><circle cx="104.07964868639044" cy="9" r="2.2" fill="#585858"/><circle cx="212.24000585777083" cy="9" r="2.2" fill="#111111"/></g><g class="bar-with-dots"><rect x="99.87964868639044" y="23.4" width="113.9339137879194" height="7.2" rx="3.6" ry="3.6" fill="#bdbdbd"/><circle cx="104.07964868639044" cy="27" r="2.2" fill="#585858"/><circle cx="209.61356247430984" cy="27" r="2.2" fill="#111111"/></g><g class="bar-with-dots"><rect x="99.87964868639044" y="41.4" width="88.8307249901682" height="7.2" rx="3.6" ry="3.6" fill="#bdbdbd"/><circle cx="104.07964868639044" cy="45" r="2.2" fill="#585858"/><circle cx="184.51037367655866" cy="45" r="2.2" fill="#111111"/></g><g class="bar-with-dots"><rect x="99.87964868639044" y="59.4" width="83.5179214826015" height="7.2" rx="3.6" ry="3.6" fill="#bdbdbd"/><circle cx="104.07964868639044" cy="63" r="2.2" fill="#585858"/><circle cx="179.19757016899194" cy="63" r="2.2" fill="#111111"/></g><g class="bar-with-dots"><rect x="99.87964868639044" y="77.4" width="65.39256241599425" height="7.2" rx="3.6" ry="3.6" fill="#bdbdbd"/><circle cx="104.07964868639044" cy="81" r="2.2" fill="#585858"/><circle cx="161.0722111023847" cy="81" r="2.2" fill="#111111"/></g><g class="bar-with-dots"><rect x="99.87964868639044" y="95.4" width="56.429126837146654" height="7.2" rx="3.6" ry="3.6" fill="#bdbdbd"/><circle cx="104.07964868639044" cy="99" r="2.2" fill="#585858"/><circle cx="152.1087755235371" cy="99" r="2.2" fill="#111111"/></g><g class="bar-with-dots"><rect x="99.87964868639044" y="113.4" width="37.01274814915824" height="7.2" rx="3.6" ry="3.6" fill="#bdbdbd"/><circle cx="104.07964868639044" cy="117" r="2.2" fill="#585858"/><circle cx="132.6923968355487" cy="117" r="2.2" fill="#111111"/></g><g class="bar-with-dots"><rect x="99.87964868639044" y="131.4" width="34.09952307691417" height="7.2" rx="3.6" ry="3.6" fill="#bdbdbd"/><circle cx="104.07964868639044" cy="135" r="2.2" fill="#585858"/><circle cx="129.77917176330462" cy="135" r="2.2" fill="#111111"/></g><g class="bar-with-dots"><rect x="99.87964868639044" y="149.4" width="25.453849220802937" height="7.2" rx="3.6" ry="3.6" fill="#bdbdbd"/><circle cx="104.07964868639044" cy="153" r="2.2" fill="#585858"/><circle cx="121.13349790719337" cy="153" r="2.2" fill="#111111"/></g><g class="bar-with-dots"><rect x="99.87964868639044" y="167.4" width="20.880650296595803" height="7.2" rx="3.6" ry="3.6" fill="#bdbdbd"/><circle cx="104.07964868639044" cy="171" r="2.2" fill="#585858"/><circle cx="116.56029898298624" cy="171" r="2.2" fill="#111111"/></g><g class="bar-with-dots"><rect x="99.87964868639044" y="185.4" width="17.83822141579067" height="7.2" rx="3.6" ry="3.6" fill="#bdbdbd"/><circle cx="104.07964868639044" cy="189" r="2.2" fill="#585858"/><circle cx="113.5178701021811" cy="189" r="2.2" fill="#111111"/></g><g class="bar-with-dots"><rect x="84.98047734930456" y="203.4" width="14.899171337085875" height="7.2" rx="3.6" ry="3.6" fill="#c9c9c9"/><circle cx="95.67964868639044" cy="207" r="2.2" fill="#585858"/><circle cx="89.18047734930457" cy="207" r="2.2" fill="#8a8a8a"/></g><g class="bar-with-dots"><rect x="99.87964868639044" y="221.4" width="14.330054401455868" height="7.2" rx="3.6" ry="3.6" fill="#bdbdbd"/><circle cx="104.07964868639044" cy="225" r="2.2" fill="#585858"/><circle cx="110.0097030878463" cy="225" r="2.2" fill="#111111"/></g><g class="bar-with-dots"><rect x="99.87964868639044" y="239.4" width="13.99454133936392" height="7.2" rx="3.6" ry="3.6" fill="#bdbdbd"/><circle cx="104.07964868639044" cy="243" r="2.2" fill="#585858"/><circle cx="109.67419002575436" cy="243" r="2.2" fill="#111111"/></g><g class="bar-with-dots"><rect x="99.87964868639044" y="257.4" width="12.855506523719797" height="7.2" rx="3.6" ry="3.6" fill="#bdbdbd"/><circle cx="104.07964868639044" cy="261" r="2.2" fill="#585858"/><circle cx="108.53515521011023" cy="261" r="2.2" fill="#111111"/></g><g class="bar-with-dots"><rect x="87.31498353956009" y="275.4" width="12.56466514683035" height="7.2" rx="3.6" ry="3.6" fill="#c9c9c9"/><circle cx="95.67964868639044" cy="279" r="2.2" fill="#585858"/><circle cx="91.51498353956009" cy="279" r="2.2" fill="#8a8a8a"/></g><g class="bar-with-dots"><rect x="87.84268370502181" y="293.4" width="12.036964981368627" height="7.2" rx="3.6" ry="3.6" fill="#c9c9c9"/><circle cx="95.67964868639044" cy="297" r="2.2" fill="#585858"/><circle cx="92.04268370502182" cy="297" r="2.2" fill="#8a8a8a"/></g><g class="bar-with-dots"><rect x="88.26077759414646" y="311.4" width="11.618871092243978" height="7.2" rx="3.6" ry="3.6" fill="#c9c9c9"/><circle cx="95.67964868639044" cy="315" r="2.2" fill="#585858"/><circle cx="92.46077759414646" cy="315" r="2.2" fill="#8a8a8a"/></g><g class="bar-with-dots"><rect x="99.87964868639044" y="329.4" width="11.348414665696552" height="7.2" rx="3.6" ry="3.6" fill="#bdbdbd"/><circle cx="104.07964868639044" cy="333" r="2.2" fill="#585858"/><circle cx="107.02806335208699" cy="333" r="2.2" fill="#111111"/></g><g class="bar-with-dots"><rect x="88.67664776384514" y="347.4" width="11.2030009225453" height="7.2" rx="3.6" ry="3.6" fill="#c9c9c9"/><circle cx="95.67964868639044" cy="351" r="2.2" fill="#585858"/><circle cx="92.87664776384514" cy="351" r="2.2" fill="#8a8a8a"/></g><text class="value-label" x="93.87964868639044" y="9" text-anchor="end" dominant-baseline="middle" font-family="Arial, sans-serif" font-size="6.8" font-weight="400" fill="#333333">.028</text><text class="value-label" x="93.87964868639044" y="27" text-anchor="end" dominant-baseline="middle" font-family="Arial, sans-serif" font-size="6.8" font-weight="400" fill="#333333">.027</text><text class="value-label" x="93.87964868639044" y="45" text-anchor="end" dominant-baseline="middle" font-family="Arial, sans-serif" font-size="6.8" font-weight="400" fill="#333333">.021</text><text class="value-label" x="93.87964868639044" y="63" text-anchor="end" dominant-baseline="middle" font-family="Arial, sans-serif" font-size="6.8" font-weight="400" fill="#333333">.020</text><text class="value-label" x="93.87964868639044" y="81" text-anchor="end" dominant-baseline="middle" font-family="Arial, sans-serif" font-size="6.8" font-weight="400" fill="#333333">.016</text><text class="value-label" x="93.87964868639044" y="99" text-anchor="end" dominant-baseline="middle" font-family="Arial, sans-serif" font-size="6.8" font-weight="400" fill="#333333">.014</text><text class="value-label" x="93.87964868639044" y="117" text-anchor="end" dominant-baseline="middle" font-family="Arial, sans-serif" font-size="6.8" font-weight="400" fill="#333333">.009</text><text class="value-label" x="93.87964868639044" y="135" text-anchor="end" dominant-baseline="middle" font-family="Arial, sans-serif" font-size="6.8" font-weight="400" fill="#333333">.008</text><text class="value-label" x="93.87964868639044" y="153" text-anchor="end" dominant-baseline="middle" font-family="Arial, sans-serif" font-size="6.8" font-weight="400" fill="#333333">.006</text><text class="value-label" x="93.87964868639044" y="171" text-anchor="end" dominant-baseline="middle" font-family="Arial, sans-serif" font-size="6.8" font-weight="400" fill="#333333">.005</text><text class="value-label" x="93.87964868639044" y="189" text-anchor="end" dominant-baseline="middle" font-family="Arial, sans-serif" font-size="6.8" font-weight="400" fill="#333333">.004</text><text class="value-label" x="105.87964868639044" y="207" text-anchor="start" dominant-baseline="middle" font-family="Arial, sans-serif" font-size="6.8" font-weight="400" fill="#333333">−.004</text><text class="value-label" x="93.87964868639044" y="225" text-anchor="end" dominant-baseline="middle" font-family="Arial, sans-serif" font-size="6.8" font-weight="400" fill="#333333">.003</text><text class="value-label" x="93.87964868639044" y="243" text-anchor="end" dominant-baseline="middle" font-family="Arial, sans-serif" font-size="6.8" font-weight="400" fill="#333333">.003</text><text class="value-label" x="93.87964868639044" y="261" text-anchor="end" dominant-baseline="middle" font-family="Arial, sans-serif" font-size="6.8" font-weight="400" fill="#333333">.003</text><text class="value-label" x="105.87964868639044" y="279" text-anchor="start" dominant-baseline="middle" font-family="Arial, sans-serif" font-size="6.8" font-weight="400" fill="#333333">−.003</text><text class="value-label" x="105.87964868639044" y="297" text-anchor="start" dominant-baseline="middle" font-family="Arial, sans-serif" font-size="6.8" font-weight="400" fill="#333333">−.003</text><text class="value-label" x="105.87964868639044" y="315" text-anchor="start" dominant-baseline="middle" font-family="Arial, sans-serif" font-size="6.8" font-weight="400" fill="#333333">−.003</text><text class="value-label" x="93.87964868639044" y="333" text-anchor="end" dominant-baseline="middle" font-family="Arial, sans-serif" font-size="6.8" font-weight="400" fill="#333333">.003</text><text class="value-label" x="105.87964868639044" y="351" text-anchor="start" dominant-baseline="middle" font-family="Arial, sans-serif" font-size="6.8" font-weight="400" fill="#333333">−.003</text><g transform="translate(0,360)" fill="none" font-size="10" font-family="sans-serif" text-anchor="middle"><path class="domain" stroke="#111111" d="M0,0H233.0866141783" stroke-width="0.75"/><g class="tick" opacity="1" transform="translate(16.646608114398404,0)"><line stroke="#111111" y2="4.5" stroke-width="0.55"/><text fill="#111111" y="9" dy="0.15em" font-family="Arial, sans-serif" font-size="7" font-weight="400">−.02</text></g><g class="tick" opacity="1" transform="translate(99.87964868639044,0)"><line stroke="#111111" y2="4.5" stroke-width="0.55"/><text fill="#111111" y="9" dy="0.15em" font-family="Arial, sans-serif" font-size="7" font-weight="400">0</text></g><g class="tick" opacity="1" transform="translate(183.11268925838246,0)"><line stroke="#111111" y2="4.5" stroke-width="0.55"/><text fill="#111111" y="9" dy="0.15em" font-family="Arial, sans-serif" font-size="7" font-weight="400">.02</text></g></g><g transform="translate(0,360)"><line class="minor-tick" x1="58.26312840039442" x2="58.26312840039442" y1="0" y2="3" stroke="#111111" stroke-width="0.55"/><line class="minor-tick" x1="141.49616897238644" x2="141.49616897238644" y1="0" y2="3" stroke="#111111" stroke-width="0.55"/></g></g><line class="row-separator" x1="0" x2="387.0866141783" y1="18" y2="18" stroke="#ebebeb" stroke-width="0.4675"/><line class="row-separator" x1="0" x2="387.0866141783" y1="36" y2="36" stroke="#ebebeb" stroke-width="0.4675"/><line class="row-separator" x1="0" x2="387.0866141783" y1="54" y2="54" stroke="#ebebeb" stroke-width="0.4675"/><line class="row-separator" x1="0" x2="387.0866141783" y1="72" y2="72" stroke="#ebebeb" stroke-width="0.4675"/><line class="row-separator" x1="0" x2="387.0866141783" y1="90" y2="90" stroke="#ebebeb" stroke-width="0.4675"/><line class="row-separator" x1="0" x2="387.0866141783" y1="108" y2="108" stroke="#ebebeb" stroke-width="0.4675"/><line class="row-separator" x1="0" x2="387.0866141783" y1="126" y2="126" stroke="#ebebeb" stroke-width="0.4675"/><line class="row-separator" x1="0" x2="387.0866141783" y1="144" y2="144" stroke="#ebebeb" stroke-width="0.4675"/><line class="row-separator" x1="0" x2="387.0866141783" y1="162" y2="162" stroke="#ebebeb" stroke-width="0.4675"/><line class="row-separator" x1="0" x2="387.0866141783" y1="180" y2="180" stroke="#ebebeb" stroke-width="0.4675"/><line class="row-separator" x1="0" x2="387.0866141783" y1="198" y2="198" stroke="#ebebeb" stroke-width="0.4675"/><line class="row-separator" x1="0" x2="387.0866141783" y1="216" y2="216" stroke="#ebebeb" stroke-width="0.4675"/><line class="row-separator" x1="0" x2="387.0866141783" y1="234" y2="234" stroke="#ebebeb" stroke-width="0.4675"/><line class="row-separator" x1="0" x2="387.0866141783" y1="252" y2="252" stroke="#ebebeb" stroke-width="0.4675"/><line class="row-separator" x1="0" x2="387.0866141783" y1="270" y2="270" stroke="#ebebeb" stroke-width="0.4675"/><line class="row-separator" x1="0" x2="387.0866141783" y1="288" y2="288" stroke="#ebebeb" stroke-width="0.4675"/><line class="row-separator" x1="0" x2="387.0866141783" y1="306" y2="306" stroke="#ebebeb" stroke-width="0.4675"/><line class="row-separator" x1="0" x2="387.0866141783" y1="324" y2="324" stroke="#ebebeb" stroke-width="0.4675"/><line class="row-separator" x1="0" x2="387.0866141783" y1="342" y2="342" stroke="#ebebeb" stroke-width="0.4675"/><g fill="#111111" font-family="Arial, sans-serif" font-size="7"><text x="153" y="11" text-anchor="end"><tspan x="153" dy="0">Seite/Dimension</tspan></text><text x="153" y="29" text-anchor="end"><tspan x="153" dy="0">Recht auf Sicherheit</tspan></text><text x="153" y="47" text-anchor="end"><tspan x="153" dy="0">General Welfare</tspan></text><text x="153" y="65" text-anchor="end"><tspan x="153" dy="0">inalienable rights</tspan></text><text x="153" y="83" text-anchor="end"><tspan x="153" dy="0">Souveränität &amp; Unabhängigkeit</tspan></text><text x="153" y="101" text-anchor="end"><tspan x="153" dy="0">U.S. Const. amend. XIV</tspan></text><text x="153" y="119" text-anchor="end"><tspan x="153" dy="0">Right to Privacy</tspan></text><text x="153" y="137" text-anchor="end"><tspan x="153" dy="0">Berufsfreiheit</tspan></text><text x="153" y="155" text-anchor="end"><tspan x="153" dy="0">Due Process Clause</tspan></text><text x="153" y="173" text-anchor="end"><tspan x="153" dy="0">Right to Liberty</tspan></text><text x="153" y="191" text-anchor="end"><tspan x="153" dy="0">Equal Protection Clause</tspan></text><text x="153" y="209" text-anchor="end"><tspan x="153" dy="0">U.S. Const. amend. I &amp; seine Freiheiten</tspan></text><text x="153" y="227" text-anchor="end"><tspan x="153" dy="0">Right to Life</tspan></text><text x="153" y="245" text-anchor="end"><tspan x="153" dy="0">Police Power</tspan></text><text x="153" y="263" text-anchor="end"><tspan x="153" dy="0">Teil des Urteils</tspan></text><text x="153" y="281" text-anchor="end"><tspan x="153" dy="0">Supremacy Clause</tspan></text><text x="153" y="299" text-anchor="end"><tspan x="153" dy="0">Liberty of Speech</tspan></text><text x="153" y="317" text-anchor="end"><tspan x="153" dy="0">Recht auf Widerstand</tspan></text><text x="153" y="335" text-anchor="end"><tspan x="153" dy="0">Kompetenzen</tspan></text><text x="153" y="353" text-anchor="end"><tspan x="153" dy="0">Citizenship</tspan></text></g><text x="-2.4240000000000004" y="-5" text-anchor="middle" font-family="Arial, sans-serif" font-size="5.44" font-weight="700" fill="#111111">Ra.</text><g><circle cx="-2.4240000000000004" cy="9" r="5.576" fill="#e8e8e8" stroke="#d6d6d6" stroke-width="0.7"/><circle cx="-2.4240000000000004" cy="27" r="5.576" fill="#e8e8e8" stroke="#d6d6d6" stroke-width="0.7"/><circle cx="-2.4240000000000004" cy="45" r="5.576" fill="#e8e8e8" stroke="#d6d6d6" stroke-width="0.7"/><circle cx="-2.4240000000000004" cy="63" r="5.576" fill="#e8e8e8" stroke="#d6d6d6" stroke-width="0.7"/><circle cx="-2.4240000000000004" cy="81" r="5.576" fill="#e8e8e8" stroke="#d6d6d6" stroke-width="0.7"/><circle cx="-2.4240000000000004" cy="99" r="5.576" fill="#e8e8e8" stroke="#d6d6d6" stroke-width="0.7"/><circle cx="-2.4240000000000004" cy="117" r="5.576" fill="#e8e8e8" stroke="#d6d6d6" stroke-width="0.7"/><circle cx="-2.4240000000000004" cy="135" r="5.576" fill="#e8e8e8" stroke="#d6d6d6" stroke-width="0.7"/><circle cx="-2.4240000000000004" cy="153" r="5.576" fill="#e8e8e8" stroke="#d6d6d6" stroke-width="0.7"/><circle cx="-2.4240000000000004" cy="171" r="5.576" fill="#e8e8e8" stroke="#d6d6d6" stroke-width="0.7"/><circle cx="-2.4240000000000004" cy="189" r="5.576" fill="#e8e8e8" stroke="#d6d6d6" stroke-width="0.7"/><circle cx="-2.4240000000000004" cy="207" r="5.576" fill="#e8e8e8" stroke="#d6d6d6" stroke-width="0.7"/><circle cx="-2.4240000000000004" cy="225" r="5.576" fill="#e8e8e8" stroke="#d6d6d6" stroke-width="0.7"/><circle cx="-2.4240000000000004" cy="243" r="5.576" fill="#e8e8e8" stroke="#d6d6d6" stroke-width="0.7"/><circle cx="-2.4240000000000004" cy="261" r="5.576" fill="#e8e8e8" stroke="#d6d6d6" stroke-width="0.7"/><circle cx="-2.4240000000000004" cy="279" r="5.576" fill="#e8e8e8" stroke="#d6d6d6" stroke-width="0.7"/><circle cx="-2.4240000000000004" cy="297" r="5.576" fill="#e8e8e8" stroke="#d6d6d6" stroke-width="0.7"/><circle cx="-2.4240000000000004" cy="315" r="5.576" fill="#e8e8e8" stroke="#d6d6d6" stroke-width="0.7"/><circle cx="-2.4240000000000004" cy="333" r="5.576" fill="#e8e8e8" stroke="#d6d6d6" stroke-width="0.7"/><circle cx="-2.4240000000000004" cy="351" r="5.576" fill="#e8e8e8" stroke="#d6d6d6" stroke-width="0.7"/></g><g font-family="Arial, sans-serif" font-size="5.984" fill="#111111"><text x="-2.4240000000000004" y="9" dominant-baseline="middle" text-anchor="middle">1</text><text x="-2.4240000000000004" y="27" dominant-baseline="middle" text-anchor="middle">2</text><text x="-2.4240000000000004" y="45" dominant-baseline="middle" text-anchor="middle">3</text><text x="-2.4240000000000004" y="63" dominant-baseline="middle" text-anchor="middle">4</text><text x="-2.4240000000000004" y="81" dominant-baseline="middle" text-anchor="middle">5</text><text x="-2.4240000000000004" y="99" dominant-baseline="middle" text-anchor="middle">6</text><text x="-2.4240000000000004" y="117" dominant-baseline="middle" text-anchor="middle">7</text><text x="-2.4240000000000004" y="135" dominant-baseline="middle" text-anchor="middle">8</text><text x="-2.4240000000000004" y="153" dominant-baseline="middle" text-anchor="middle">9</text><text x="-2.4240000000000004" y="171" dominant-baseline="middle" text-anchor="middle">10</text><text x="-2.4240000000000004" y="189" dominant-baseline="middle" text-anchor="middle">11</text><text x="-2.4240000000000004" y="207" dominant-baseline="middle" text-anchor="middle">12</text><text x="-2.4240000000000004" y="225" dominant-baseline="middle" text-anchor="middle">13</text><text x="-2.4240000000000004" y="243" dominant-baseline="middle" text-anchor="middle">14</text><text x="-2.4240000000000004" y="261" dominant-baseline="middle" text-anchor="middle">15</text><text x="-2.4240000000000004" y="279" dominant-baseline="middle" text-anchor="middle">16</text><text x="-2.4240000000000004" y="297" dominant-baseline="middle" text-anchor="middle">17</text><text x="-2.4240000000000004" y="315" dominant-baseline="middle" text-anchor="middle">18</text><text x="-2.4240000000000004" y="333" dominant-baseline="middle" text-anchor="middle">19</text><text x="-2.4240000000000004" y="351" dominant-baseline="middle" text-anchor="middle">20</text></g><line x1="253.87964868639045" x2="253.87964868639045" y1="0" y2="360" stroke="#111111" stroke-width="0.65"/></g><text x="213.54330708915" y="414.8" text-anchor="middle" font-family="Arial, sans-serif" font-size="7.8" fill="#111111">Permutation importance</text></svg>